<svg id="Capa_1" enable-background="new 0 0 512 512" height="512" viewBox="0 0 512 512" width="512" xmlns="http://www.w3.org/2000/svg" xmlns:xlink="http://www.w3.org/1999/xlink"><linearGradient id="SVGID_1_" gradientUnits="userSpaceOnUse" x1="514.782" x2="-122.413" y1="-43.218" y2="593.978"><stop offset=".0023" stop-color="#ffc599"/><stop offset=".992" stop-color="#ffe8dc" stop-opacity="0"/></linearGradient><path d="m428.41 171.888c-8.356-8.356-18.026-14.923-28.717-19.765-28.021-12.69-50.051-35.407-62.434-63.565-22.917-52.113-74.975-88.512-135.546-88.558-79.311-.06-145.162 63.163-148.147 142.418-1.277 33.922 8.857 65.421 26.87 90.969 22.877 32.448 28.821 73.782 17.021 111.69-16.764 53.857-10.919 104.898 20.973 136.791 55.888 55.888 170.586 31.804 256.185-53.795 85.598-85.599 109.683-200.296 53.795-256.185z" fill="url(#SVGID_1_)"/><path d="m475.01 103.939c-6.443 0-11.667 5.223-11.667 11.667v1.438h-18.333c-2.761 0-5 2.239-5 5v13.333h-25.333v-10c0-2.761-2.239-5-5-5h-29.762c-1.156-9.456-9.199-16.784-18.967-16.784h-210.542c-9.768 0-17.811 7.329-18.967 16.784h-29.762c-2.761 0-5 2.239-5 5v10h-24.687v-13.333c0-2.761-2.239-5-5-5h-18.333v-1.438c0-6.443-5.223-11.667-11.667-11.667-6.443 0-11.667 5.223-11.667 11.667v58.208c0 6.443 5.223 11.667 11.667 11.667 6.443 0 11.667-5.223 11.667-11.667v-1.438h18.333c2.761 0 5-2.239 5-5v-13.333h24.686v10c0 2.761 2.239 5 5 5h5.5v102.99c0 5.52 4.48 10 10 10h14.105v168.864c0 7.389 8.024 11.986 14.398 8.249l105.161-61.652c2.986-1.751 6.686-1.751 9.672 0l105.161 61.652c6.375 3.737 14.398-.86 14.398-8.249v-168.864h14.105c5.52 0 10-4.48 10-10v-102.99h5.5c2.761 0 5-2.239 5-5v-10h25.333v8.333c0 5.523 4.477 10 10 10h13.333v1.438c0 6.443 5.223 11.667 11.667 11.667 6.443 0 11.667-5.223 11.667-11.667v-58.208c.001-6.444-5.223-11.667-11.666-11.667z" fill="#00c" opacity=".1"/><path d="m404.177 133.033v118c0 5.52-4.48 10-10 10h-277c-5.52 0-10-4.48-10-10v-118z" fill="#ff4d4d"/><path d="m107.177 133.033h297v30.01h-297z" fill="#ff2c2c"/><path d="m344.577 114.377h97.833v18.667h-97.833z" fill="#ff7300"/><path d="m68.942 114.377h97.833v18.667h-97.833z" fill="#ff7300"/><path d="m409.677 148.043h-308c-2.761 0-5-2.239-5-5v-38.667c0-2.761 2.239-5 5-5h308c2.761 0 5 2.239 5 5v38.667c0 2.762-2.239 5-5 5z" fill="#ff9d33"/><path d="m463.343 151.377h-13.333c-5.523 0-10-4.477-10-10v-40.333c0-2.761 2.239-5 5-5h18.333z" fill="#ff9d33"/><path d="m475.01 164.481c-6.443 0-11.667-5.223-11.667-11.667v-58.208c0-6.443 5.223-11.667 11.667-11.667 6.443 0 11.667 5.223 11.667 11.667v58.208c0 6.443-5.224 11.667-11.667 11.667z" fill="#ff7300"/><path d="m48.657 151.377h18.333c2.761 0 5-2.239 5-5v-45.333c0-2.761-2.239-5-5-5h-18.333z" fill="#ff9d33"/><path d="m36.99 164.481c6.443 0 11.667-5.223 11.667-11.667v-58.208c0-6.443-5.223-11.667-11.667-11.667-6.443 0-11.667 5.223-11.667 11.667v58.208c0 6.443 5.224 11.667 11.667 11.667z" fill="#ff7300"/><path d="m365.673 438.146-105.161-61.652c-2.986-1.751-6.686-1.751-9.672 0l-105.16 61.652c-6.375 3.737-14.398-.86-14.398-8.249v-328.181c0-10.562 8.562-19.124 19.124-19.124h210.541c10.562 0 19.124 8.562 19.124 19.124v328.181c.001 7.39-8.023 11.987-14.398 8.249z" fill="#ff6c6c"/><g fill="#ff4d4d"><path d="m197.177 82.593v325.36l-28 16.41v-341.77z"/><path d="m342.177 82.593v341.77l-28-16.41v-325.36z"/><path d="m295.267 82.593v314.27l-34.75-20.37c-2.99-1.75-6.69-1.75-9.68 0l-34.75 20.37v-314.27z"/></g><path d="m475.01 77.939c-7.967 0-14.637 5.622-16.274 13.104h-13.726c-5.514 0-10 4.486-10 10v8.334h-15.333v-5c0-5.514-4.486-10-10-10h-25.75c-3.113-9.724-12.236-16.785-22.98-16.785h-176.541c-2.762 0-5 2.238-5 5s2.238 5 5 5h176.541c7.788 0 14.125 6.337 14.125 14.125v328.181c0 2.387-1.604 3.563-2.294 3.959-.69.395-2.517 1.184-4.576-.023l-105.161-61.652c-4.541-2.661-10.184-2.662-14.729 0l-105.161 61.652c-2.063 1.207-3.888.417-4.576.023-.689-.396-2.294-1.572-2.294-3.959v-328.181c0-7.788 6.337-14.125 14.125-14.125 2.762 0 5-2.238 5-5s-2.238-5-5-5c-10.744 0-19.866 7.061-22.98 16.785h-25.75c-5.514 0-10 4.486-10 10v5h-14.686v-8.334c0-5.514-4.486-10-10-10h-13.726c-1.637-7.482-8.307-13.104-16.274-13.104-9.19 0-16.667 7.477-16.667 16.666v58.209c0 9.189 7.477 16.666 16.667 16.666 7.967 0 14.637-5.622 16.274-13.104h13.726c5.514 0 10-4.486 10-10v-8.334h14.687v5c0 5.514 4.486 10 10 10h.5v97.99c0 8.271 6.729 15 15 15h9.104v163.864c0 5.285 2.737 10.009 7.323 12.636 4.584 2.626 10.044 2.6 14.604-.073l105.161-61.652c1.424-.834 3.191-.834 4.615 0l105.16 61.652c2.302 1.349 4.832 2.024 7.363 2.024 2.484 0 4.97-.65 7.241-1.951 4.586-2.627 7.323-7.351 7.323-12.636v-163.863h9.104c8.271 0 15-6.729 15-15v-68.989c0-2.762-2.238-5-5-5s-5 2.238-5 5v68.989c0 2.757-2.243 5-5 5h-9.104v-102.99h24.604c5.514 0 10-4.486 10-10v-5h15.333v3.334c0 8.271 6.729 15 15 15h8.726c1.637 7.482 8.307 13.104 16.274 13.104 9.19 0 16.667-7.477 16.667-16.666v-58.21c.002-9.189-7.475-16.666-16.665-16.666zm-431.353 74.875c0 3.676-2.991 6.666-6.667 6.666s-6.667-2.99-6.667-6.666v-58.209c0-3.676 2.991-6.666 6.667-6.666s6.667 2.99 6.667 6.666zm23.333-6.437h-13.333v-45.334h13.333zm10-18.334v-8.666h14.687v8.666zm24.687-23.666h24.604v38.666h-24.604zm15.5 151.656c-2.757 0-5-2.243-5-5v-97.99h14.104v102.99zm267.895-112.99v-38.666h24.604l.007 38.666zm34.605-15v-8.666h15.333v8.666zm25.333 13.334v-40.334h13.333v45.334h-8.333c-2.757 0-5-2.243-5-5zm36.667 11.437c0 3.676-2.991 6.666-6.667 6.666s-6.667-2.99-6.667-6.666v-58.209c0-3.676 2.991-6.666 6.667-6.666s6.667 2.99 6.667 6.666z" fill="#00c"/><path d="m316.153 149.233c-14.031-14.031-36.78-14.031-50.81 0-5.339 5.339-13.994 5.339-19.333 0-14.031-14.031-36.78-14.031-50.81 0-14.031 14.031-14.031 36.779 0 50.81l51.51 51.51c4.952 4.952 12.981 4.952 17.933 0l51.51-51.51c14.031-14.03 14.031-36.779 0-50.81z" fill="#fee"/><path d="m424.677 344.533c-1.279 0-2.56-.488-3.535-1.465l-6.465-6.464-6.465 6.464c-1.951 1.953-5.119 1.953-7.07 0-1.953-1.952-1.953-5.118 0-7.07l10-10c1.951-1.953 5.119-1.953 7.07 0l10 10c1.953 1.952 1.953 5.118 0 7.07-.976.977-2.256 1.465-3.535 1.465z" fill="#6c6cff"/><path d="m78.942 221.533c-1.279 0-2.56-.488-3.535-1.465l-6.465-6.464-6.465 6.464c-1.951 1.953-5.119 1.953-7.07 0-1.953-1.952-1.953-5.118 0-7.07l10-10c1.951-1.953 5.119-1.953 7.07 0l10 10c1.953 1.952 1.953 5.118 0 7.07-.975.977-2.255 1.465-3.535 1.465z" fill="#ff9d33"/><path d="m426.677 274.533c-1.279 0-2.56-.488-3.535-1.465-1.953-1.952-1.953-5.118 0-7.07l10-10c1.951-1.953 5.119-1.953 7.07 0 1.953 1.952 1.953 5.118 0 7.07l-10 10c-.976.977-2.256 1.465-3.535 1.465z" fill="#ff6c6c"/><path d="m339.577 66.526c-1.279 0-2.56-.488-3.535-1.465-1.953-1.952-1.953-5.118 0-7.07l10-10c1.951-1.953 5.119-1.953 7.07 0 1.953 1.952 1.953 5.118 0 7.07l-10 10c-.975.977-2.256 1.465-3.535 1.465z" fill="#ff6c6c"/><path d="m66 327.533c-1.279 0-2.56-.488-3.535-1.465-1.953-1.952-1.953-5.118 0-7.07l10-10c1.951-1.953 5.119-1.953 7.07 0 1.953 1.952 1.953 5.118 0 7.07l-10 10c-.975.977-2.256 1.465-3.535 1.465z" fill="#ff6c6c"/></svg>