<svg id="Capa_1" enable-background="new 0 0 512 512" height="512" viewBox="0 0 512 512" width="512" xmlns="http://www.w3.org/2000/svg" xmlns:xlink="http://www.w3.org/1999/xlink"><linearGradient id="SVGID_1_" gradientUnits="userSpaceOnUse" x1="256" x2="256" y1="598.193" y2="61.05"><stop offset=".0023" stop-color="#ffc599"/><stop offset=".992" stop-color="#ffe8dc" stop-opacity="0"/></linearGradient><path d="m465.257 164.114c-14.861-17.312-24.645-38.356-29.218-60.708-3.878-18.954-12.095-35.401-24.961-48.267-58.773-58.773-192.264-20.572-298.161 85.325s-144.098 239.387-85.325 298.16c27.937 27.937 72.757 33.955 123.469 21.212 29.453-7.401 60.532-4.287 88.29 8.03 23.202 10.295 48.799 16.173 75.724 16.566 105.676 1.543 193.748-82.552 196.839-188.195 1.479-50.505-16.354-96.822-46.657-132.123z" fill="url(#SVGID_1_)"/><path d="m345.388 476.5h-191.775c-12.208 0-22.105-9.897-22.105-22.105v-375.79c0-12.208 9.897-22.105 22.105-22.105h191.775c12.208 0 22.105 9.897 22.105 22.105v375.789c0 12.209-9.897 22.106-22.105 22.106z" fill="#00c" opacity=".1"/><path d="m379.943 145.09h-21.522v-66.913h21.522c3.803 0 6.885 3.083 6.885 6.885v53.143c0 3.803-3.082 6.885-6.885 6.885z" fill="#6c6cff"/><path d="m115.907 213.943h24.672v-135.766h-24.672c-3.803 0-3.735 3.083-3.735 6.885v121.995c0 3.803-.067 6.886 3.735 6.886z" fill="#6c6cff"/><path d="m345.388 455.5h-191.775c-12.208 0-22.105-9.897-22.105-22.105v-375.79c0-12.208 9.897-22.105 22.105-22.105h191.775c12.208 0 22.105 9.897 22.105 22.105v375.789c0 12.209-9.897 22.106-22.105 22.106z" fill="#ff9d33"/><path d="m131.507 87.627h235.985v315.746h-235.985z" fill="#fff"/><circle cx="316.041" cy="322.987" fill="#ffd9d9" r="36.513"/><path d="m204.055 200.582h-42.191c-2.761 0-5-2.239-5-5v-42.191c0-2.761 2.239-5 5-5h42.191c2.761 0 5 2.239 5 5v42.191c0 2.762-2.239 5-5 5z" fill="#ffd9d9"/><path d="m379.943 73.177h-7.45v-15.572c0-14.946-12.159-27.105-27.105-27.105h-191.776c-14.946 0-27.105 12.16-27.105 27.105v15.571h-10.6c-3.777 0-6.669 1.877-7.934 5.151-.803 2.079-.802 4.347-.802 6.54v122.383c0 2.193-.001 4.461.802 6.54 1.265 3.273 4.156 5.151 7.934 5.151h10.6v214.452c0 14.946 12.159 27.105 27.105 27.105h191.775c14.946 0 27.105-12.16 27.105-27.105v-254.302c0-2.761-2.239-5-5-5s-5 2.239-5 5v219.282h-196.984c-2.761 0-5 2.239-5 5s2.239 5 5 5h196.985v25.021c0 9.432-7.673 17.105-17.105 17.105h-191.776c-9.432 0-17.105-7.673-17.105-17.105v-340.767h225.985v52.463c0 2.761 2.239 5 5 5h12.45c6.554 0 11.885-5.332 11.885-11.885v-53.143c.001-6.554-5.33-11.885-11.884-11.885zm-262.754 135.765c-.018-.56-.017-1.188-.017-1.688v-122.389c0-.5 0-1.128.017-1.688h9.318v58.215c-1.894.711-3.25 2.525-3.25 4.668s1.355 3.956 3.25 4.668v58.215h-9.318zm19.318-126.315v-25.022c0-9.432 7.673-17.105 17.105-17.105h191.775c9.432 0 17.105 7.673 17.105 17.105v25.021h-225.985zm245.321 55.578c0 1.04-.846 1.885-1.885 1.885h-7.45v-56.913h7.45c1.04 0 1.885.846 1.885 1.885z" fill="#00c"/><g fill="#ff4d4d"><path d="m269.76 66.5h-40.52c-2.762 0-5-2.239-5-5s2.238-5 5-5h40.52c2.762 0 5 2.239 5 5s-2.239 5-5 5z"/><path d="m229.167 422.5v12.667c0 2.761 2.239 5 5 5h30.667c2.761 0 5-2.239 5-5v-12.667c0-2.761-2.239-5-5-5h-30.667c-2.762 0-5 2.238-5 5z"/><path d="m328.51 433.833h-16.52c-2.762 0-5-2.239-5-5s2.238-5 5-5h16.52c2.762 0 5 2.239 5 5s-2.239 5-5 5z"/><path d="m187.01 433.833h-16.52c-2.762 0-5-2.239-5-5s2.238-5 5-5h16.52c2.762 0 5 2.239 5 5s-2.239 5-5 5z"/><path d="m238.75 260.083c-2.111 0-4.072-1.347-4.757-3.463l-14.253-44.092h-10.686c-2.761 0-5-2.239-5-5s2.239-5 5-5h14.324c2.169 0 4.09 1.398 4.758 3.462l15.373 47.554c.849 2.627-.592 5.446-3.22 6.296-.511.165-1.03.243-1.539.243z"/><path d="m283.854 260.082h-52.834c-2.761 0-5-2.239-5-5s2.239-5 5-5h48.647l4.307-24.125h-52.954c-2.761 0-5-2.239-5-5s2.239-5 5-5h58.926c1.48 0 2.884.655 3.833 1.79.95 1.135 1.349 2.632 1.089 4.089l-6.092 34.125c-.426 2.385-2.5 4.121-4.922 4.121z"/><path d="m241.727 290.789c-7.175 0-13.012-5.837-13.012-13.012s5.837-13.012 13.012-13.012 13.012 5.837 13.012 13.012-5.837 13.012-13.012 13.012zm0-16.024c-1.661 0-3.012 1.351-3.012 3.012s1.351 3.012 3.012 3.012 3.012-1.351 3.012-3.012-1.351-3.012-3.012-3.012z"/><path d="m279.063 290.789c-7.175 0-13.012-5.837-13.012-13.012s5.837-13.012 13.012-13.012 13.012 5.837 13.012 13.012-5.837 13.012-13.012 13.012zm0-16.024c-1.661 0-3.012 1.351-3.012 3.012s1.351 3.012 3.012 3.012 3.012-1.351 3.012-3.012-1.351-3.012-3.012-3.012z"/></g><path d="m179.333 125.467c-1.28 0-2.559-.488-3.536-1.465l-2.298-2.298-2.298 2.298c-1.952 1.953-5.119 1.953-7.071 0-1.953-1.953-1.953-5.118 0-7.071l5.833-5.834c.938-.938 2.209-1.465 3.536-1.465s2.598.527 3.536 1.465l5.833 5.834c1.953 1.953 1.953 5.118 0 7.071-.975.977-2.255 1.465-3.535 1.465z" fill="#00c"/><path d="m293 359.5h-84.5c-2.762 0-5-2.239-5-5s2.238-5 5-5h84.5c2.762 0 5 2.239 5 5s-2.238 5-5 5z" fill="#d9d9ff"/><path d="m325.5 142.86c-9.161 0-16.613-7.453-16.613-16.613s7.453-16.613 16.613-16.613 16.613 7.453 16.613 16.613-7.452 16.613-16.613 16.613zm0-23.227c-3.646 0-6.613 2.967-6.613 6.613s2.967 6.613 6.613 6.613 6.613-2.967 6.613-6.613-2.967-6.613-6.613-6.613z" fill="#ffab66"/><path d="m337.113 154.473c-2.761 0-5-2.239-5-5 0-3.646-2.967-6.613-6.613-6.613s-6.613 2.967-6.613 6.613c0 2.761-2.239 5-5 5s-5-2.239-5-5c0-9.161 7.453-16.613 16.613-16.613s16.613 7.453 16.613 16.613c0 2.761-2.238 5-5 5z" fill="#ffab66"/><path d="m293 154.473h-12.5c-2.762 0-5-2.239-5-5s2.238-5 5-5h12.5c2.762 0 5 2.239 5 5s-2.238 5-5 5z" fill="#d9d9ff"/><path d="m293 137.247h-12.5c-2.762 0-5-2.239-5-5s2.238-5 5-5h12.5c2.762 0 5 2.239 5 5s-2.238 5-5 5z" fill="#d9d9ff"/><path d="m293 379.625h-84.5c-2.762 0-5-2.239-5-5s2.238-5 5-5h84.5c2.762 0 5 2.239 5 5s-2.238 5-5 5z" fill="#d9d9ff"/><path d="m316.041 327.987h-133.082c-2.761 0-5-2.239-5-5v-148.5c0-2.761 2.239-5 5-5h133.082c2.761 0 5 2.239 5 5v148.5c0 2.761-2.239 5-5 5zm-128.082-10h123.082v-138.5h-123.082z" fill="#ff2c2c"/><path d="m334.75 223.092c-2.761 0-5-2.239-5-5v-21c0-2.761 2.239-5 5-5s5 2.239 5 5v21c0 2.762-2.239 5-5 5z" fill="#ffab66"/><path d="m164.25 305.381c-2.761 0-5-2.239-5-5v-21c0-2.761 2.239-5 5-5s5 2.239 5 5v21c0 2.761-2.239 5-5 5z" fill="#ffab66"/><path d="m210.833 323c0 7.64 6.193 13.833 13.833 13.833h49.667c7.64 0 13.833-6.193 13.833-13.833 0-7.64-6.193-13.833-13.833-13.833h-49.667c-7.639 0-13.833 6.193-13.833 13.833z" fill="#6c6cff"/><path d="m422.5 195.4c-1.28 0-2.559-.488-3.536-1.464l-6.464-6.464-6.464 6.464c-1.953 1.952-5.118 1.952-7.071 0-1.953-1.953-1.953-5.119 0-7.071l10-10c1.953-1.952 5.118-1.952 7.071 0l10 10c1.953 1.953 1.953 5.119 0 7.071-.977.976-2.256 1.464-3.536 1.464z" fill="#ff9d33"/><path d="m446.5 255.5c-1.28 0-2.559-.488-3.536-1.464l-6.464-6.464-6.464 6.464c-1.953 1.952-5.118 1.952-7.071 0-1.953-1.953-1.953-5.119 0-7.071l10-10c1.953-1.952 5.118-1.952 7.071 0l10 10c1.953 1.953 1.953 5.119 0 7.071-.977.976-2.256 1.464-3.536 1.464z" fill="#ff6c6c"/><path d="m85.5 279.765c-1.28 0-2.559-.488-3.536-1.464l-6.464-6.464-6.464 6.464c-1.953 1.952-5.118 1.952-7.071 0-1.953-1.953-1.953-5.119 0-7.071l10-10c1.953-1.952 5.118-1.952 7.071 0l10 10c1.953 1.953 1.953 5.119 0 7.071-.977.976-2.256 1.464-3.536 1.464z" fill="#ff9d33"/><path d="m70.5 153.667c-1.28 0-2.559-.488-3.536-1.464-1.953-1.953-1.953-5.119 0-7.071l10-10c1.953-1.952 5.118-1.952 7.071 0 1.953 1.953 1.953 5.119 0 7.071l-10 10c-.976.975-2.255 1.464-3.535 1.464z" fill="#ff6c6c"/><path d="m407.5 354.5c-1.28 0-2.559-.488-3.536-1.464-1.953-1.953-1.953-5.119 0-7.071l10-10c1.953-1.952 5.118-1.952 7.071 0 1.953 1.953 1.953 5.119 0 7.071l-10 10c-.976.976-2.255 1.464-3.535 1.464z" fill="#6c6cff"/></svg>