<?xml version="1.0" encoding="utf-8"?>
<!-- Generator: Adobe Illustrator 18.0.0, SVG Export Plug-In . SVG Version: 6.00 Build 0)  -->
<!DOCTYPE svg PUBLIC "-//W3C//DTD SVG 1.1//EN" "http://www.w3.org/Graphics/SVG/1.1/DTD/svg11.dtd">
<svg version="1.1" id="Capa_1" xmlns="http://www.w3.org/2000/svg" xmlns:xlink="http://www.w3.org/1999/xlink" x="0px" y="0px"
	 viewBox="0 86 612 610.8" enable-background="new 0 86 612 610.8" xml:space="preserve">
<path fill="#D1C6E7" d="M554.6,304.7H57.4c-5.3,0-9.6,4.3-9.6,9.6v372.9c0,5.3,4.3,9.6,9.6,9.6h497.3c5.3,0,9.6-4.3,9.6-9.6v-373
	C564.2,308.9,559.9,304.7,554.6,304.7z"/>
<path fill="#BAA9DA" d="M564.2,314.2c0-5.3-4.3-9.6-9.6-9.6H57.4c-5.3,0-9.6,4.3-9.6,9.6v65.7h516.4V314.2z"/>
<path fill="#A38DCE" d="M602.4,237.7H9.6c-5.3,0-9.6,4.3-9.6,9.6v105.2c0,5.3,4.3,9.6,9.6,9.6h592.9c5.3,0,9.6-4.3,9.6-9.6V247.3
	C612,242,607.7,237.7,602.4,237.7z"/>
<path fill="#957FC2" d="M602.4,236.5H9.6c-5.3,0-9.6,4.3-9.6,9.6V282c0-5.3,4.3-9.6,9.6-9.6h592.9c5.3,0,9.6,4.3,9.6,9.6v-35.9
	C612,240.8,607.7,236.5,602.4,236.5z"/>
<path fill="#7B5FB2" d="M506.2,129.9c-11.3-23.1-38.5-34.5-67.9-31.2c-10-8.7-23.2-13.1-37.8-12.6c-16.3,0.6-32.4,7.4-45.6,19.1
	c-17.8,15.9-37.7,63.5-48.9,93.1c-11.1-29.6-31.1-77.2-48.9-93.1c-13.1-11.7-29.3-18.5-45.6-19.1c-14.6-0.6-27.8,3.9-37.8,12.6
	c-29.4-3.3-56.6,8.1-67.9,31.2c-15.4,31.5,4.4,72.9,44.2,92.3c26.6,13,93.3,14.9,130.4,14.9c6.6,0,12.3-0.1,16.7-0.1
	c0,0.2,0,0.5,0,0.7v162.6c0,5,4,9,9,9s9-4,9-9V237.7c0-0.2,0-0.5,0-0.7c4.4,0.1,10,0.1,16.7,0.1c37.2,0,103.8-1.9,130.4-14.9
	C501.7,202.8,521.5,161.3,506.2,129.9z M436.9,144.2c-1.9,12-8.4,23.5-18.4,32.4c-13.5,12-56,25-87.4,33
	c24.6-31.3,61.9-75.1,83-85.4c5.8-2.8,11.7-4.9,17.6-6.3C436.6,125.1,438.4,134.3,436.9,144.2z M180.4,117.9
	c5.8,1.4,11.8,3.5,17.6,6.3c21.1,10.3,58.4,54.1,83,85.4c-31.4-8.1-73.9-21-87.4-33.1c-10-8.9-16.6-20.5-18.4-32.4
	C173.6,134.3,175.4,125.1,180.4,117.9z M366.8,118.6c10-8.9,22.2-14.1,34.3-14.6c0.6,0,1.2,0,1.8,0c3.5,0,6.8,0.4,9.9,1.2
	c-2.2,0.9-4.4,1.9-6.6,2.9c-20.3,9.9-49.7,42.2-72.7,70C344,153.1,356.6,127.7,366.8,118.6z M209.1,104c0.6,0,1.2,0,1.8,0
	c12.1,0.5,24.3,5.7,34.3,14.6c10.2,9.1,22.8,34.5,33.3,59.5c-23-27.8-52.4-60.1-72.7-70c-2.2-1.1-4.4-2-6.6-2.9
	C202.4,104.4,205.7,104,209.1,104z M121.9,137.8c6.6-13.5,21.6-21.1,39.1-21.8c-4.1,9.3-5.4,19.8-3.7,30.9
	c2.5,16.1,11.1,31.4,24.2,43.1c12.1,10.8,38.8,20.8,64.4,28.6c-34.5-1.2-71.9-4.6-88.1-12.5C127,191,110.9,160.3,121.9,137.8z
	 M454.1,206.1c-16.1,7.9-53.5,11.3-88.1,12.5c25.5-7.8,52.3-17.8,64.4-28.6c13.1-11.7,21.7-27,24.2-43.1c1.7-11.1,0.4-21.7-3.7-31
	c17.5,0.7,32.5,8.3,39.1,21.8C501.1,160.3,485,191,454.1,206.1z"/>
<path fill="#EE6482" d="M306,390.7c-79.1,0-143.4,64.3-143.4,143.4S226.9,677.6,306,677.6s143.4-64.3,143.4-143.4
	S385.1,390.7,306,390.7z"/>
<path fill="#F1819A" d="M306,677.6c72.4,0,132.4-53.9,142.1-123.7c-3.6-75.3-65.8-135.3-142.1-135.3s-138.5,60-142.1,135.3
	C173.6,623.7,233.6,677.6,306,677.6z"/>
<path fill="#FFFFFF" d="M399.8,606.8l-21.1,3c17.2-18.4,26.8-42.6,26.8-68.3c0-55.3-45-100.3-100.3-100.3s-100.3,45-100.3,100.3
	c0,22.2,7.1,43.2,20.5,60.8c13,17,31.4,29.7,51.9,35.6c2.7,0.8,5.6-0.9,6.2-3.7c0.6-2.5-1-5.2-3.5-5.9
	c-38.4-11.1-65.3-46.8-65.3-86.8c0-49.8,40.5-90.4,90.4-90.4c49.8,0,90.4,40.5,90.4,90.4c0,24.6-9.8,47.7-27.1,64.6v-26.2
	c0-2.7-2.2-5-5-5c-2.7,0-5,2.2-5,5V617c0,3,2.7,5.3,5.7,4.9l37.1-5.3c2.7-0.4,4.6-2.9,4.2-5.6S402.5,606.4,399.8,606.8z"/>
<path fill="#FFFFFF" d="M305.2,541.8h-5.3c-6,0-10.9-4.9-10.9-10.9s4.9-10.9,10.9-10.9h21.2c2.7,0,5-2.2,5-5c0-2.7-2.2-5-5-5h-10.9
	v-5.6c0-2.7-2.2-5-5-5c-2.7,0-5,2.2-5,5v5.6h-0.3c-11.5,0-20.9,9.4-20.9,20.9s9.4,20.9,20.9,20.9h5.3c6,0,10.9,4.9,10.9,10.9
	s-4.9,10.9-10.9,10.9H284c-2.7,0-5,2.2-5,5c0,2.7,2.2,5,5,5h16.2v5.6c0,2.7,2.2,5,5,5c2.7,0,5-2.2,5-5V583
	c9.1-2.2,15.9-10.5,15.9-20.3C326,551.2,316.7,541.8,305.2,541.8z"/>
</svg>
