<svg id="Capa_1" enable-background="new 0 0 512 512" height="512" viewBox="0 0 512 512" width="512" xmlns="http://www.w3.org/2000/svg" xmlns:xlink="http://www.w3.org/1999/xlink"><linearGradient id="SVGID_1_" gradientUnits="userSpaceOnUse" x1="440.448" x2="68.448" y1="758.998" y2="-281.002"><stop offset=".0023" stop-color="#ffc599"/><stop offset=".992" stop-color="#ffe8dc" stop-opacity="0"/></linearGradient><path d="m512 189.635c0-77.209-114.615-139.799-256-139.799s-256 62.59-256 139.799c0 12.48 2.999 24.577 8.62 36.089 10.007 20.491 12.502 43.828 7.537 66.086-2.036 9.127-3.179 18.59-3.333 28.294-1.235 77.812 61.961 142.061 139.782 142.06 58.443 0 108.503-35.865 129.385-86.785 11.468-27.964 35.565-48.919 65.155-55.077 96.38-20.057 164.854-70.992 164.854-130.667z" fill="url(#SVGID_1_)"/><path d="m368.036 95.649c-8.264 0-14.964 6.699-14.964 14.964 0 2.304.536 4.477 1.466 6.427l-79.23 79.23c-1.953 1.952-1.953 5.118 0 7.07.976.977 2.256 1.465 3.535 1.465s2.56-.488 3.535-1.465l79.23-79.23c1.949.93 4.123 1.467 6.427 1.467 8.264 0 14.964-6.699 14.964-14.964s-6.698-14.964-14.963-14.964z" fill="#00c" opacity=".1"/><path d="m390.862 305.851c-6.333 0-12.433.989-18.163 2.809v-100.735h53.893c2.761 0 5-2.239 5-5v-22.45c0-16.394-13.152-29.708-29.479-29.987.195-.004.389-.015.585-.015h-122.296v-37.634c0-5.523-4.477-10-10-10h-199.204c-5.523 0-10 4.477-10 10v144.986c0 5.523 4.477 10 10 10h117.641v102.175h-55.073c-2.761 0-5 2.239-5 5v44.524c0 16.569 13.431 30 30 30h183.86c-.019 0-.039-.001-.058-.001h.131c15.433 0 28.151-11.666 29.811-26.666 5.785 1.859 11.949 2.873 18.352 2.873 33.104 0 59.94-26.836 59.94-59.94 0-33.103-26.836-59.939-59.94-59.939z" fill="#00c" opacity=".1"/><path d="m431.593 181.925v-22.45c0-16.569-13.431-30-30-30h-51.461v57.45h76.461c2.761 0 5-2.238 5-5z" fill="#ff9d33"/><path d="m431.595 159.479v14.85c0-16.56-13.43-30-30-30h-51.46v-14.85h51.46c16.57 0 30 13.43 30 30z" fill="#ff8b00"/><path d="m402.699 129.474c-16.57 0-30 13.43-30 30v239.05c0 16.57-13.44 30-30 30h-153.86v-269.05c0-16.57 13.43-30 30-30z" fill="#fff"/><path d="m322.543 203.936h-42.191c-2.761 0-5-2.239-5-5v-42.191c0-2.761 2.239-5 5-5h42.191c2.761 0 5 2.239 5 5v42.191c0 2.762-2.239 5-5 5z" fill="#ebebff"/><circle cx="308.614" cy="353.801" fill="#ebebff" r="36.513"/><path d="m280.399 129.474v124.36c0 5.53-4.47 10-10 10h-81.56v-104.36c0-16.57 13.43-30 30-30z" fill="#ebebff"/><path d="m312.626 398.525v-44.525c0-2.761-2.239-5-5-5h-173.86c-2.761 0-5 2.239-5 5v44.525c0 16.569 13.431 30 30 30h183.86c-16.57 0-30-13.43-30-30z" fill="#ff9d33"/><path d="m270.402 246.826h-199.204c-5.523 0-10-4.477-10-10v-144.987c0-5.523 4.477-10 10-10h199.204c5.523 0 10 4.477 10 10v144.986c0 5.523-4.477 10.001-10 10.001z" fill="#ffab66"/><path d="m303.614 306.967h-84.5c-2.762 0-5-2.239-5-5s2.238-5 5-5h84.5c2.762 0 5 2.239 5 5s-2.238 5-5 5z" fill="#b3b3ff"/><path d="m237.614 279.896h-18.5c-2.762 0-5-2.239-5-5s2.238-5 5-5h18.5c2.762 0 5 2.239 5 5s-2.238 5-5 5z" fill="#ff9d33"/><path d="m339.614 327.092h-120.5c-2.762 0-5-2.239-5-5s2.238-5 5-5h120.5c2.762 0 5 2.239 5 5s-2.238 5-5 5z" fill="#b3b3ff"/><path d="m326.372 206.647c-9.16 0-16.613-7.453-16.613-16.613s7.453-16.613 16.613-16.613 16.613 7.453 16.613 16.613-7.453 16.613-16.613 16.613zm0-23.226c-3.646 0-6.613 2.967-6.613 6.613s2.967 6.613 6.613 6.613 6.613-2.967 6.613-6.613-2.966-6.613-6.613-6.613z" fill="#ff2c2c"/><path d="m337.985 218.261c-2.762 0-5-2.238-5-5 0-3.646-2.967-6.613-6.613-6.613s-6.613 2.967-6.613 6.613c0 2.762-2.238 5-5 5s-5-2.238-5-5c0-9.16 7.453-16.613 16.613-16.613s16.613 7.453 16.613 16.613c0 2.761-2.238 5-5 5z" fill="#ff2c2c"/><circle cx="337.985" cy="235.204" fill="#ff9d33" r="5.59"/><circle cx="87.8" cy="107.438" fill="#fff" r="5.59"/><g fill="#ff9d33"><circle cx="337.985" cy="252.114" r="5.59"/><path d="m343.575 269.024c0 3.087-2.503 5.59-5.59 5.59s-5.59-2.503-5.59-5.59 2.503-5.59 5.59-5.59 5.59 2.503 5.59 5.59"/><circle cx="390.862" cy="344.791" r="59.94"/></g><circle cx="390.862" cy="344.791" fill="#fff" r="42.384"/><path d="m396.663 367.757h-15.997c-2.762 0-5-2.238-5-5s2.238-5 5-5h15.997c2.196 0 3.982-1.787 3.982-3.983s-1.786-3.982-3.982-3.982h-11.602c-7.71 0-13.982-6.272-13.982-13.983 0-7.71 6.272-13.982 13.982-13.982h15.997c2.762 0 5 2.238 5 5s-2.238 5-5 5h-15.997c-2.196 0-3.982 1.786-3.982 3.982s1.786 3.983 3.982 3.983h11.602c7.71 0 13.982 6.272 13.982 13.982.001 7.71-6.272 13.983-13.982 13.983z" fill="#ff7300"/><path d="m390.862 374.445c-2.762 0-5-2.238-5-5v-49.31c0-2.762 2.238-5 5-5s5 2.238 5 5v49.31c0 2.762-2.238 5-5 5z" fill="#ff7300"/><circle cx="139.387" cy="168.25" fill="#4d4dff" r="14.964"/><circle cx="177.292" cy="205.15" fill="#ff4d4d" r="14.964"/><circle cx="242.182" cy="141.387" fill="#4d4dff" r="14.964"/><circle cx="279.148" cy="179.012" fill="#ff4d4d" r="14.964"/><circle cx="368.036" cy="89.613" fill="#4d4dff" r="14.964"/><path d="m218.018 371.599c-1.953-1.953-5.118-1.953-7.071 0l-10 10c-1.953 1.952-1.953 5.118 0 7.07 1.953 1.953 5.118 1.953 7.071 0l6.464-6.464 6.464 6.464c.977.977 2.256 1.465 3.536 1.465s2.559-.488 3.536-1.465c1.953-1.952 1.953-5.118 0-7.07z" fill="#00c"/><path d="m390.862 279.851c-35.808 0-64.939 29.132-64.939 64.94 0 27.309 16.953 50.718 40.879 60.299-2.92 10.684-12.801 18.435-24.107 18.435h-.069c-13.785 0-25-11.215-25-25v-44.524c0-5.514-4.486-10-10-10h-113.791v-92.176h76.567c8.271 0 15-6.729 15-15v-38.866c7.951-2.632 13.71-10.124 13.71-18.946 0-3.826-1.101-7.391-2.975-10.431l34.106-34.106h47.98c-6.493 6.357-10.528 15.216-10.528 25v95.456c0 2.762 2.238 5 5 5s5-2.238 5-5v-63.006h48.897c5.514 0 10-4.486 10-10v-22.45c0-18.805-14.909-34.187-33.526-34.963-.125-.009-.244-.037-.371-.037h-62.452l17.68-17.68c2.97 1.755 6.42 2.781 10.113 2.781 11.008 0 19.964-8.956 19.964-19.964s-8.956-19.963-19.964-19.963-19.963 8.955-19.963 19.963c0 3.692 1.026 7.142 2.78 10.112l-24.751 24.751h-40.7v-32.636c0-8.271-6.729-15-15-15h-199.204c-8.271 0-15 6.729-15 15v144.985c0 8.271 6.729 15 15 15h83.637c2.761 0 5-2.238 5-5s-2.239-5-5-5h-83.637c-2.757 0-5-2.243-5-5v-144.985c0-2.757 2.243-5 5-5h199.205c2.757 0 5 2.243 5 5v67.574c-2.31.441-4.471 1.288-6.426 2.452l-9.897-9.897c1.931-3.072 3.066-6.693 3.066-10.582 0-11.008-8.956-19.964-19.963-19.964s-19.963 8.956-19.963 19.964c0 3.611.978 6.992 2.662 9.917l-36.97 36.97c-3.08-1.945-6.714-3.089-10.619-3.089-3.954 0-7.633 1.17-10.738 3.161l-9.984-9.984c1.755-2.97 2.78-6.42 2.78-10.112 0-11.008-8.956-19.963-19.963-19.963s-19.963 8.955-19.963 19.963c0 3.692 1.026 7.142 2.78 10.112l-32.778 32.778c-1.953 1.952-1.953 5.118 0 7.07.977.977 2.256 1.465 3.536 1.465s2.559-.488 3.536-1.465l32.777-32.777c2.97 1.755 6.42 2.781 10.112 2.781s7.142-1.026 10.112-2.781l10.231 10.231c-1.531 2.823-2.402 6.054-2.402 9.485 0 11.008 8.956 19.964 19.964 19.964s19.963-8.956 19.963-19.964c0-3.481-.9-6.753-2.472-9.606l37.092-37.092c3.013 1.827 6.533 2.899 10.307 2.899 3.496 0 6.781-.909 9.642-2.495l10.105 10.104c-1.733 2.957-2.744 6.385-2.744 10.052 0 9.726 6.996 17.839 16.218 19.599v38.213c0 2.757-2.243 5-5 5h-81.567c-2.658 0-4.811 2.08-4.97 4.699h-.03v97.477h-50.07c-5.514 0-10 4.486-10 10v44.524c0 19.299 15.701 35 35 35h183.86.069c15.698 0 29.456-10.67 33.669-25.447 4.665 1.068 9.513 1.652 14.498 1.652 35.808 0 64.939-29.132 64.939-64.939s-29.132-64.938-64.94-64.938zm11.282-145.361c13.531.295 24.449 11.386 24.449 24.986v22.45h-48.897v-22.45c-.001-13.601 10.917-24.691 24.448-24.986zm-34.108-54.841c5.494 0 9.964 4.47 9.964 9.963 0 5.494-4.47 9.964-9.964 9.964-5.493 0-9.963-4.47-9.963-9.964 0-5.493 4.47-9.963 9.963-9.963zm-51.934 54.827-27.16 27.16c-1.118-.633-2.301-1.159-3.539-1.569v-25.591zm-176.715 43.738c-5.494 0-9.963-4.47-9.963-9.964 0-5.493 4.47-9.963 9.963-9.963s9.963 4.47 9.963 9.963c.001 5.494-4.469 9.964-9.963 9.964zm37.905 36.899c-5.494 0-9.964-4.47-9.964-9.964s4.47-9.964 9.964-9.964 9.963 4.47 9.963 9.964-4.469 9.964-9.963 9.964zm54.927-73.726c0-5.494 4.47-9.964 9.963-9.964s9.963 4.47 9.963 9.964-4.47 9.964-9.963 9.964-9.963-4.47-9.963-9.964zm36.966 37.626c0-5.494 4.47-9.964 9.964-9.964s9.964 4.47 9.964 9.964-4.47 9.964-9.964 9.964-9.964-4.47-9.964-9.964zm-110.419 244.512c-13.785 0-25-11.215-25-25v-44.524h173.86v44.524c0 9.784 4.035 18.643 10.528 25zm232.096-23.795c-30.294 0-54.939-24.646-54.939-54.939s24.646-54.94 54.939-54.94 54.939 24.646 54.939 54.94-24.645 54.939-54.939 54.939z" fill="#00c"/><path d="m196.237 133.066h-85.778c-2.762 0-5-2.239-5-5s2.238-5 5-5h85.778c2.762 0 5 2.239 5 5s-2.238 5-5 5z" fill="#ff7300"/><path d="m125.078 112.839h-12.5c-2.762 0-5-2.239-5-5s2.238-5 5-5h12.5c2.762 0 5 2.239 5 5s-2.238 5-5 5z" fill="#ff7300"/><path d="m175.799 112.839h-33.5c-2.762 0-5-2.239-5-5s2.238-5 5-5h33.5c2.762 0 5 2.239 5 5s-2.239 5-5 5z" fill="#ff7300"/><path d="m146.468 303.932c-1.28 0-2.559-.488-3.536-1.465-1.953-1.952-1.953-5.118 0-7.07l10-10c1.953-1.953 5.118-1.953 7.071 0 1.953 1.952 1.953 5.118 0 7.07l-10 10c-.976.976-2.255 1.465-3.535 1.465z" fill="#6c6cff"/><path d="m308.235 77.475c-1.279 0-2.56-.488-3.535-1.465-1.953-1.952-1.953-5.118 0-7.07l10-10c1.951-1.953 5.119-1.953 7.07 0 1.953 1.952 1.953 5.118 0 7.07l-10 10c-.975.976-2.255 1.465-3.535 1.465z" fill="#6c6cff"/><path d="m428.734 231.521c-1.279 0-2.56-.488-3.535-1.465l-6.465-6.464-6.465 6.464c-1.951 1.953-5.119 1.953-7.07 0-1.953-1.952-1.953-5.118 0-7.07l10-10c1.951-1.953 5.119-1.953 7.07 0l10 10c1.953 1.952 1.953 5.118 0 7.07-.975.977-2.255 1.465-3.535 1.465z" fill="#ff9d33"/><path d="m112.362 327.648c-1.28 0-2.559-.488-3.536-1.465l-6.464-6.464-6.464 6.464c-1.953 1.953-5.118 1.953-7.071 0-1.953-1.952-1.953-5.118 0-7.07l10-10c1.953-1.953 5.118-1.953 7.071 0l10 10c1.953 1.952 1.953 5.118 0 7.07-.977.977-2.256 1.465-3.536 1.465z" fill="#ff6c6c"/><path d="m85.827 400.314c-1.28 0-2.559-.488-3.536-1.465l-6.464-6.464-6.464 6.464c-1.953 1.953-5.118 1.953-7.071 0-1.953-1.952-1.953-5.118 0-7.07l10-10c1.953-1.953 5.118-1.953 7.071 0l10 10c1.953 1.952 1.953 5.118 0 7.07-.977.977-2.257 1.465-3.536 1.465z" fill="#ff9d33"/></svg>