<svg xmlns="http://www.w3.org/2000/svg" xmlns:xlink="http://www.w3.org/1999/xlink" preserveAspectRatio="xMidYMid" width="68" height="68" viewBox="0 0 68 68">
  <defs>
    <style>
      .cls-1 {
        fill: #f55d2c;
      }

      .cls-2 {
        fill: #fff;
        fill-rule: evenodd;
      }
    </style>
  </defs>
  <g>
    <rect x="4" y="2" width="60" height="60" rx="10" ry="10" class="cls-1"/>
    <path d="M42.850,46.375 C44.283,44.959 45.000,42.950 45.000,40.350 L45.000,32.000 C45.000,31.234 44.616,30.850 43.850,30.850 L35.100,30.850 C34.400,30.850 34.050,31.200 34.050,31.900 L34.050,35.300 C34.050,36.000 34.400,36.350 35.100,36.350 L38.100,36.350 C38.466,36.350 38.650,36.534 38.650,36.900 L38.650,40.050 C38.650,41.117 38.433,41.875 38.000,42.325 C37.566,42.775 36.816,43.000 35.750,43.000 L32.500,43.000 C31.466,43.000 30.725,42.775 30.275,42.325 C29.825,41.875 29.600,41.117 29.600,40.050 L29.600,24.800 C29.600,23.734 29.825,22.975 30.275,22.525 C30.725,22.075 31.466,21.850 32.500,21.850 L35.750,21.850 C36.816,21.850 37.566,22.075 38.000,22.525 C38.433,22.975 38.650,23.734 38.650,24.800 L38.650,26.000 C38.650,26.734 39.000,27.100 39.700,27.100 L43.950,27.100 C44.650,27.100 45.000,26.734 45.000,26.000 L45.000,24.500 C45.000,21.900 44.283,19.892 42.850,18.475 C41.416,17.059 39.400,16.350 36.800,16.350 L31.500,16.350 C28.866,16.350 26.833,17.050 25.400,18.450 C23.966,19.850 23.250,21.867 23.250,24.500 L23.250,40.350 C23.250,42.984 23.966,45.000 25.400,46.400 C26.833,47.800 28.866,48.500 31.500,48.500 L36.800,48.500 C39.400,48.500 41.416,47.792 42.850,46.375 Z" class="cls-2"/>
  </g>
</svg>
