<svg xmlns="http://www.w3.org/2000/svg" xmlns:xlink="http://www.w3.org/1999/xlink" preserveAspectRatio="xMidYMid" width="73" height="11" viewBox="0 0 73 11">
  <defs>
    <style>
      .cls-1 {
        fill: #f55d2c;
        fill-rule: evenodd;
      }

      .cls-2 {
        fill: #efefef;
      }
    </style>
  </defs>
  <path d="M43.375,4.937 C43.375,4.627 43.123,4.375 42.813,4.375 L41.234,4.375 L38.732,0.934 C38.488,0.599 38.019,0.525 37.684,0.768 C37.349,1.012 37.275,1.481 37.518,1.816 L39.379,4.375 L33.871,4.375 L35.732,1.816 C35.975,1.481 35.901,1.012 35.566,0.768 C35.231,0.525 34.762,0.599 34.518,0.934 L32.016,4.375 L30.437,4.375 C30.127,4.375 29.875,4.627 29.875,4.937 L29.875,5.313 C29.875,5.623 30.127,5.875 30.437,5.875 L30.625,5.875 L31.237,10.159 C31.316,10.713 31.791,11.125 32.351,11.125 L40.899,11.125 C41.459,11.125 41.934,10.713 42.013,10.159 L42.625,5.875 L42.813,5.875 C43.123,5.875 43.375,5.623 43.375,5.313 L43.375,4.937 ZM37.187,9.063 C37.187,9.373 36.936,9.625 36.625,9.625 C36.314,9.625 36.063,9.373 36.063,9.063 L36.063,6.438 C36.063,6.127 36.314,5.875 36.625,5.875 C36.936,5.875 37.187,6.127 37.187,6.438 L37.187,9.063 ZM39.812,9.063 C39.812,9.373 39.561,9.625 39.250,9.625 C38.939,9.625 38.687,9.373 38.687,9.063 L38.687,6.438 C38.687,6.127 38.939,5.875 39.250,5.875 C39.561,5.875 39.812,6.127 39.812,6.438 L39.812,9.063 ZM34.563,9.063 C34.563,9.373 34.311,9.625 34.000,9.625 C33.689,9.625 33.438,9.373 33.438,9.063 L33.438,6.438 C33.438,6.127 33.689,5.875 34.000,5.875 C34.311,5.875 34.563,6.127 34.563,6.438 L34.563,9.063 Z" class="cls-1"/>
  <rect x="53" y="4" width="20" height="2" class="cls-2"/>
  <rect y="4" width="20" height="2" class="cls-2"/>
</svg>
