<svg id="Layer_1" enable-background="new 0 0 256 256" height="512" viewBox="0 0 256 256" width="512" xmlns="http://www.w3.org/2000/svg"><g id="Layer_22"><g><path d="m224.3 91.5c-2.1-.3-4.3-.8-6-.3-3 .8-5.6 5-8.8 5s-5.9-4.2-8.8-5c-3.1-.8-7.5 1.5-10.2-.1s-2.9-6.5-5.1-8.8c0 0 0 0-.1-.1h-182.8l31.9 110.9h219.1z" fill="#fc657e"/><g fill="#edf4fc"><path d="m90.8 147.4c-1.7-3.1-4.1-5.7-7.2-7.4-3.1-1.8-6.6-2.7-10.2-2.7s-7.1.9-10.2 2.7-5.6 4.3-7.2 7.5c-3.4 6.7-3.4 14.6 0 21.3 1.7 3.1 4.2 5.7 7.2 7.5 3.1 1.8 6.6 2.7 10.2 2.7s7.1-.9 10.2-2.7c3-1.8 5.5-4.4 7.2-7.4 3.5-6.8 3.5-14.8 0-21.5zm-8 17.2c-.8 1.7-2.2 3.1-3.8 4.1-1.7 1-3.6 1.5-5.6 1.4-2 0-3.9-.5-5.6-1.4-1.6-1-3-2.4-3.8-4.1-1.9-4.1-1.9-8.9 0-13.1.8-1.7 2.2-3.1 3.8-4.1 3.5-1.9 7.7-1.9 11.2 0 1.6 1 3 2.4 3.8 4.1 2 4.2 2 8.9 0 13.1z"/><path d="m118.1 137.8h-20.5c-1.2 0-2.2 1-2.2 2.2v36.3c0 1.2 1 2.2 2.2 2.2h4.7c1.2 0 2.2-1 2.2-2.2v-14.1h11.3c1.2 0 2.2-1 2.2-2.2v-3.7c0-1.2-1-2.2-2.2-2.2h-11.3v-8.2h13.7c1.2 0 2.2-1 2.2-2.2v-3.7c-.1-1.2-1.1-2.2-2.3-2.2z"/><path d="m144.2 137.8h-20.5c-1.2 0-2.2 1-2.2 2.2v36.3c0 1.2 1 2.2 2.2 2.2h4.7c1.2 0 2.2-1 2.2-2.2v-14.1h11.3c1.2 0 2.2-1 2.2-2.2v-3.7c0-1.2-1-2.2-2.2-2.2h-11.3v-8.2h13.7c1.2 0 2.2-1 2.2-2.2v-3.7c-.1-1.2-1.1-2.2-2.3-2.2z"/><path d="m169.8 145.9c1.2 0 2.2-1 2.2-2.2v-3.7c0-1.2-1-2.2-2.2-2.2h-20c-1.2 0-2.2 1-2.2 2.2v36.3c0 1.2 1 2.2 2.2 2.2h20c1.2 0 2.2-1 2.2-2.2v-3.8c0-1.2-1-2.2-2.2-2.2h-13.2v-8.3h11.6c1.2 0 2.2-1 2.2-2.2v-3.6c0-1.2-1-2.2-2.2-2.2h-11.6v-8.1z"/><path d="m202.2 175.1-8.2-12.4c5.2-1.6 8.6-6.5 8.3-11.9.1-3.5-1.2-7-3.8-9.4-2.5-2.4-6.1-3.6-10.8-3.6h-11.9c-1.2 0-2.2 1-2.2 2.2v36.3c0 1.2 1 2.2 2.2 2.2h4.7c1.2 0 2.2-1 2.2-2.2v-12.7h1.7l8.8 13.8c.4.6 1.1 1 1.8 1h5.3c1.2 0 2.2-1 2.2-2.2.1-.4-.1-.8-.3-1.1zm-14.8-19.2h-4.7v-9.7h4.7c5.1 0 5.8 2.3 5.8 4.8s-.7 4.9-5.8 4.9z"/></g><path d="m176.7 193.1 12.7 44.6 64.1-44.6z" fill="#ef4460"/><path d="m128.8 50.5c-4-.7-7.2-3.8-8-7.8 0-.1-.1-.2-.2-.1-.1 0-.1.1-.1.1-.8 4-4 7.1-8 7.8-.1 0-.2.1-.1.2 0 .1.1.1.1.1 4 .7 7.2 3.8 8 7.8 0 .1.1.2.2.1.1 0 .1-.1.1-.1.8-4 4-7.1 8-7.8.1 0 .2-.1.2-.2s-.1-.1-.2-.1z" fill="#f5c84c"/><path d="m162.2 212.7h-2.2v-2.2c0-1.7-1.3-3-3-3s-3 1.3-3 3v2.2h-2.2c-1.7 0-3 1.3-3 3s1.3 3 3 3h2.2v2.2c0 1.7 1.3 3 3 3s3-1.3 3-3v-2.2h2.2c1.7 0 3-1.3 3-3s-1.3-3-3-3z" fill="#70d6f9"/><circle cx="13.8" cy="186.9" fill="#f5c84c" r="3.2"/><circle cx="99.8" cy="62.9" fill="#fc657e" r="3.2"/><circle cx="129.8" cy="207.9" fill="#87d147" r="3.2"/><g><path d="m73 115.5c-.9-1.2-2-2.2-3.3-2.9-1.5-.7-3-1.3-4.6-1.8-1.2-.4-2.3-.8-3.4-1.3-.7-.3-1.2-.7-1.7-1.3-.4-.5-.6-1.2-.6-1.8-.1-.8.3-1.7.9-2.2.8-.6 1.7-.9 2.7-.8 1.1-.1 2.1.3 2.9.9.7.6 1.1 1.4 1.3 2.2.1.6.7 1.1 1.3 1.1h3.9c.7 0 1.3-.6 1.3-1.3 0-.1 0-.1 0-.2-.3-2.4-1.5-4.5-3.3-6-2.1-1.6-4.8-2.5-7.5-2.3-1.8 0-3.6.3-5.2 1-1.5.7-2.7 1.7-3.6 3.1s-1.3 3-1.3 4.6c-.1 1.7.4 3.5 1.4 4.9.8 1.2 2 2.1 3.3 2.8 1.5.7 3 1.3 4.5 1.7 1.2.4 2.3.8 3.5 1.3.7.3 1.3.8 1.8 1.4.4.6.6 1.3.6 2 0 .9-.3 1.7-.9 2.4-.8.7-1.8 1-2.8.9-.9 0-1.7-.2-2.5-.6-.6-.3-1.2-.8-1.5-1.4-.3-.5-.6-1.2-.6-1.8-.1-.7-.6-1.2-1.3-1.2h-3.9c-.7 0-1.3.6-1.3 1.3v.1c.1 1.7.7 3.4 1.8 4.7 1 1.4 2.4 2.5 4 3.2 1.7.8 3.6 1.2 5.6 1.1 1.9.1 3.8-.4 5.5-1.2 1.4-.8 2.6-1.9 3.4-3.3.7-1.3 1.1-2.8 1.1-4.4s-.5-3.4-1.5-4.9z"/><path d="m95.2 101c-1.9-1.7-4.6-2.6-8.2-2.6h-9c-.7 0-1.3.6-1.3 1.3v28.3c0 .7.6 1.3 1.3 1.3h3.7c.7 0 1.3-.6 1.3-1.3v-10.1h4c3.5 0 6.2-.9 8.1-2.6 2-1.8 3.1-4.5 2.9-7.2.1-2.7-.9-5.3-2.8-7.1zm-4.6 10.2c-.7.7-2 1-3.9 1h-3.7v-8.2h3.7c1.4-.1 2.8.2 3.9 1 .8.8 1.2 2 1.1 3.1 0 1.1-.4 2.2-1.1 3.1z"/><path d="m116.6 103.9c.7 0 1.3-.6 1.3-1.3v-3c0-.7-.6-1.3-1.3-1.3h-15.6c-.7 0-1.3.6-1.3 1.3v28.4c0 .7.6 1.3 1.3 1.3h15.6c.7 0 1.3-.6 1.3-1.3v-3c0-.7-.6-1.3-1.3-1.3h-10.7v-7.3h9.5c.7 0 1.3-.6 1.3-1.3v-2.8c0-.7-.6-1.3-1.3-1.3h-9.5v-7.1z"/><path d="m147.1 117.4h-3.9c-.5 0-1 .3-1.2.8-.6 1.6-1.6 2.9-3 3.9-1.5 1-3.3 1.5-5.2 1.4-3.1.1-5.9-1.7-7.2-4.5-.8-1.6-1.2-3.4-1.1-5.2 0-1.8.3-3.6 1.1-5.3 1.3-2.8 4.2-4.6 7.2-4.5 1.8-.1 3.6.4 5.2 1.4 1.4.9 2.4 2.3 3 3.9.2.5.7.8 1.2.8h3.9c.7 0 1.3-.6 1.3-1.3 0-.1 0-.2-.1-.4-.8-3-2.6-5.7-5.1-7.7-2.7-1.9-6-2.9-9.4-2.8-2.7 0-5.4.7-7.7 2-2.2 1.4-4.1 3.3-5.3 5.7-1.3 2.5-1.9 5.3-1.9 8.1s.6 5.6 1.9 8.1c1.2 2.3 3 4.3 5.3 5.6 2.3 1.4 5 2.1 7.7 2 3.3.1 6.6-.9 9.4-2.8 2.5-1.9 4.3-4.6 5.1-7.7.2-.7-.2-1.4-.9-1.6-.1.1-.2.1-.3.1z"/><path d="m152 98.3h3.7c.7 0 1.3.6 1.3 1.3v28.4c0 .7-.6 1.3-1.3 1.3h-3.7c-.7 0-1.3-.6-1.3-1.3v-28.4c-.1-.7.5-1.3 1.3-1.3z"/><path d="m185.6 127.5-10.5-27.8c-.2-.5-.7-.9-1.2-.9h-4.1c-.5 0-1 .3-1.2.9l-10.5 27.8c-.3.7.1 1.4.8 1.7.1.1.3.1.5.1h3.9c.6 0 1.1-.3 1.2-.9l2.1-5.7h10.6l2.1 5.7c.2.5.7.9 1.2.9h3.9c.7 0 1.3-.6 1.3-1.3 0-.2 0-.3-.1-.5zm-17-10.2 3.3-9.1 3.3 9.1z"/><path d="m201.8 123.8h-8.7v-24.2c0-.7-.6-1.3-1.3-1.3h-3.7c-.7 0-1.3.6-1.3 1.3v28.4c0 .7.6 1.3 1.3 1.3h13.7c.7 0 1.3-.6 1.3-1.3v-2.9c0-.7-.5-1.3-1.3-1.3z"/></g><path d="m242.4 67c.8-3 5-5.6 5-8.8s-4.2-5.9-5-8.8c-.8-3.1 1.5-7.5-.1-10.2s-6.5-2.9-8.8-5.1-2.4-7.2-5.1-8.8-7.1.7-10.2-.1c-3-.8-5.6-5-8.8-5s-5.9 4.2-8.8 5c-3.1.8-7.5-1.5-10.2.1s-2.9 6.5-5.1 8.8-7.2 2.4-8.8 5.1.7 7.1-.1 10.2c-.8 3-5 5.6-5 8.8s4.2 5.9 5 8.8c.8 3.1-1.5 7.5.1 10.2s6.5 2.9 8.8 5.1 2.4 7.2 5.1 8.8 7.1-.7 10.2.1c3 .8 5.6 5 8.8 5s5.9-4.2 8.8-5c3.1-.8 7.5 1.5 10.2-.1s2.9-6.5 5.1-8.8 7.2-2.4 8.8-5.1c1.6-2.8-.7-7.2.1-10.2z" fill="#f5c84c"/><path d="m215.6 57.7c-1.4-.6-2.9-1.1-4.4-1.6v-10.1c1.8.6 3.2 2.2 3.5 4.1 0 .2.2.4.4.4h4.4c.2 0 .5-.2.5-.4 0 0 0 0 0-.1-.6-4.4-4-7.5-8.8-8.2v-3.5c0-.3-.3-.6-.6-.6h-2.5c-.3 0-.6.3-.6.6v3.3c-5.7.4-9.4 3.7-9.4 8.7 0 5.9 4.1 7.7 9.4 9.4v10.6c-2.2-.7-3.8-2.6-4.1-4.9 0-.2-.2-.4-.4-.4h-4.3c-.2 0-.4.2-.5.4.4 4.6 4.1 8.1 9.3 9v3.2c0 .3.3.6.6.6h2.5c.3 0 .6-.3.6-.6v-3c6.5-.4 9.4-4.7 9.4-8.9.2-3.5-1.8-6.7-5-8zm-8-2.8c-1.1-.4-2-1-2.9-1.7-.9-.8-1.4-2-1.3-3.2 0-2.5 1.5-4.1 4.2-4.4zm3.6 15.5v-9.6c2.6 1 4.2 2.2 4.2 4.9.1 2.5-1.8 4.5-4.2 4.7z"/><path d="m255.9 192.4-28.3-98.5c.7-.1 1.4-.4 2.1-.7 2.3-1.3 3.2-3.8 4.1-6 .3-1.1.9-2.2 1.6-3.2 1-.7 2-1.3 3.2-1.6 2.2-.8 4.7-1.8 6-4.1s.9-4.9.5-7.1c-.3-1.2-.3-2.4-.2-3.6.5-1.1 1.1-2 1.9-2.9 1.5-1.8 3.2-3.9 3.2-6.6s-1.7-4.8-3.2-6.6c-.8-.8-1.4-1.8-1.9-2.9-.1-1.2-.1-2.4.2-3.6.4-2.3.8-4.9-.5-7.1-1.3-2.3-3.8-3.2-6-4.1-1.1-.3-2.2-.9-3.2-1.6-.7-1-1.3-2-1.6-3.2-.8-2.2-1.8-4.7-4.1-6s-4.9-.9-7.1-.5c-1.2.3-2.4.3-3.6.2-1.1-.5-2-1.1-2.9-1.9-1.8-1.5-3.9-3.2-6.6-3.2s-4.8 1.7-6.6 3.2c-.8.8-1.8 1.4-2.9 1.9-1.2.1-2.4.1-3.6-.2-2.3-.4-4.9-.8-7.1.5-2.3 1.3-3.2 3.8-4.1 6-.3 1.1-.9 2.2-1.6 3.2-1 .7-2 1.3-3.2 1.6-2.2.8-4.7 1.8-6 4.1s-.9 4.9-.5 7.1c.3 1.2.3 2.4.2 3.6-.5 1.1-1.1 2-1.9 2.9-1.5 1.8-3.2 3.9-3.2 6.6s1.7 4.8 3.2 6.6c.8.8 1.4 1.8 1.9 2.9.1 1.2.1 2.4-.2 3.6-.4 2.3-.8 4.9.5 7.1.3.5.6.9 1.1 1.3h-173c-1.4 0-2.5 1.1-2.5 2.5 0 .2 0 .5.1.7l31.9 111c.3 1.1 1.3 1.8 2.4 1.8h140.4l12.2 42.8c.4 1.3 1.8 2.1 3.1 1.7.3-.1.5-.2.7-.4l64.1-44.6c.9-.5 1.3-1.6 1-2.7zm-82-134.3c0-.9 1-2.2 2.1-3.5 1.3-1.4 2.2-3 2.9-4.7.4-1.9.3-3.8-.1-5.7-.2-1.5-.5-3.1-.1-3.9s2-1.4 3.4-1.9c1.8-.6 3.5-1.5 4.9-2.7 1.2-1.4 2.2-3.1 2.7-4.9.5-1.4 1.1-3 1.9-3.4.7-.4 2.4-.2 3.9.1 1.9.4 3.8.5 5.7.1 1.8-.6 3.4-1.6 4.7-2.9 1.2-1 2.5-2.1 3.5-2.1s2.2 1 3.5 2.1c1.4 1.3 3 2.2 4.7 2.9 1.9.4 3.8.3 5.7-.1 1.5-.2 3.1-.5 3.9-.1s1.4 2 1.9 3.4c.6 1.8 1.5 3.5 2.7 4.9 1.4 1.2 3.1 2.2 4.9 2.7 1.4.5 3 1.2 3.4 1.9s.2 2.4-.1 3.9c-.4 1.9-.5 3.8-.1 5.7.6 1.8 1.6 3.4 2.9 4.7 1 1.2 2.1 2.5 2.1 3.5s-1 2.2-2.1 3.5c-1.3 1.4-2.2 3-2.9 4.7-.4 1.9-.3 3.8.1 5.7.2 1.5.5 3.1.1 3.9s-2 1.4-3.4 1.9c-1.8.6-3.5 1.5-4.9 2.7-1.2 1.4-2.2 3.1-2.7 4.9-.5 1.4-1.1 3-1.9 3.4-.7.4-2.4.2-3.9-.1-1.9-.4-3.8-.5-5.7-.1-1.8.6-3.4 1.6-4.7 2.9-1.2 1-2.5 2.1-3.5 2.1s-2.2-1-3.5-2.1c-1.4-1.3-3-2.2-4.7-2.9-.7-.2-1.5-.3-2.2-.3-1.2 0-2.3.1-3.5.4-1.5.2-3.1.5-3.9.1s-1.4-2-1.9-3.4c-.6-1.8-1.5-3.5-2.7-4.9s-.1-.1-.1-.1c-1.4-1.2-3-2-4.7-2.6-1.4-.5-3-1.2-3.4-1.9s-.2-2.4.1-3.9c.4-1.9.5-3.8.1-5.7-.6-1.8-1.6-3.4-2.9-4.7-1.2-1.3-2.2-2.6-2.2-3.5zm16.9 175.6-10.8-38h65.5zm-154.5-43.1-30.5-105.9h178.2c.4.8.8 1.6 1.1 2.5.8 2.2 1.8 4.7 4.1 6s4.9.9 7.1.5c1.2-.3 2.4-.3 3.6-.2 1.1.5 2 1.1 2.9 1.9 1.8 1.5 3.9 3.2 6.6 3.2s4.8-1.7 6.6-3.2c.8-.8 1.8-1.4 2.9-1.9 1.1-.1 2.3-.1 3.4.2l27.9 96.9z"/><path d="m73.5 143.6c-7.7 0-13.4 5.5-13.4 14.5 0 8.7 5.4 14.5 13.4 14.5 7.5 0 13.3-5.5 13.3-14.5 0-9.1-5.8-14.5-13.3-14.5zm0 24c-5.6 0-8.4-4.1-8.4-9.5 0-5.6 2.9-9.5 8.4-9.5s8.3 4.1 8.3 9.5c0 5.5-2.9 9.5-8.3 9.5z"/><path d="m204.3 173.7-6.6-9.9c1.3-.7 2.4-1.6 3.4-2.7 2.5-2.8 3.8-6.5 3.7-10.3.1-4.2-1.5-8.3-4.5-11.2-2.9-2.8-7.2-4.3-12.5-4.3h-11.9c-1.1 0-2.2.4-3 1.1-.8-.7-1.9-1.1-3-1.1h-20c-1 0-2 .3-2.8.9-.8-.6-1.8-.9-2.8-.9h-20.5c-1 0-2 .3-2.8.9-.8-.6-1.8-.9-2.8-.9h-20.6c-2.6 0-4.7 2.1-4.7 4.7v6.1c-1.9-3.4-4.6-6.2-8-8.2-3.5-2-7.4-3.1-11.4-3-12.7 0-22.5 9.7-22.5 23.3 0 13.5 9.7 23.3 22.5 23.3 8.1.2 15.5-4.2 19.4-11.2v6.1c0 2.6 2.1 4.7 4.7 4.7h4.7c2.6 0 4.7-2.1 4.7-4.7v-11.6h8.8c1.2 0 2.4-.5 3.3-1.4v13c0 2.6 2.1 4.7 4.7 4.7h4.7c2.6 0 4.7-2.1 4.7-4.7v-11.6h8.8c1.2 0 2.4-.5 3.3-1.4v13c0 2.6 2.1 4.7 4.7 4.7h20c1.1 0 2.2-.4 3-1.1.8.7 1.9 1.1 3 1.1h4.7c2.6 0 4.7-2.1 4.7-4.7v-6.8l6 9.3c.9 1.3 2.3 2.2 3.9 2.2h5.3c2.6 0 4.7-2.1 4.7-4.7-.2-1-.5-1.9-1-2.7zm-130.8 2.7c-10.1 0-17.5-7.6-17.5-18.3 0-10.9 7.6-18.3 17.5-18.3 10.2 0 17.4 7.7 17.4 18.3 0 10.5-7.2 18.3-17.4 18.3zm41.9-16.7h-10.9c-1.4 0-2.5 1.1-2.5 2.5v13.8h-4v-35.6h19.9v3.2h-13.4c-1.4 0-2.5 1.1-2.5 2.5v8.2c0 1.4 1.1 2.5 2.5 2.5h10.9zm3.6-6.7c-.9-.9-2.1-1.4-3.3-1.4h-8.8v-3.2h11.2c.3 0 .6 0 .9-.1zm22.5 6.7h-10.9c-1.4 0-2.5 1.1-2.5 2.5v13.8h-4v-35.6h19.9v3.2h-13.4c-1.4 0-2.5 1.1-2.5 2.5v8.2c0 1.4 1.1 2.5 2.5 2.5h10.9zm3.6-6.7c-.9-.9-2.1-1.4-3.3-1.4h-8.8v-3.2h11.2c.3 0 .6 0 .9-.1zm24.4 22.9h-19.4v-35.6h19.4v3.2h-12.8c-1.4 0-2.5 1.1-2.5 2.5v8.1c0 1.4 1.1 2.5 2.5 2.5h11.3v2.9h-11.3c-1.4 0-2.5 1.1-2.5 2.5v8.3c0 1.4 1.1 2.5 2.5 2.5h12.8zm1.7-7.9c-.4-.1-.9-.2-1.4-.2h-10.7v-3.3h9.1c1.1 0 2.1-.4 2.9-1zm0-15.5c-.8-.7-1.8-1-2.9-1h-9.1v-3.1h10.7c.5 0 .9-.1 1.4-.2zm24.1 23.4-8.7-13.7c-.5-.7-1.3-1.2-2.1-1.2h-1.7c-1.4 0-2.5 1.1-2.5 2.5v12.3h-4v-35.6h11.6c4 0 7.1 1 9 2.9 3.7 4 4 10.2.6 14.5-1.2 1.2-2.6 2.1-4.2 2.6-1.3.4-2 1.9-1.6 3.2.1.2.2.4.3.6l7.8 11.9z"/><path d="m187.4 143.7h-4.7c-1.4 0-2.5 1.1-2.5 2.5v9.7c0 1.4 1.1 2.5 2.5 2.5h4.7c5.5 0 8.3-2.5 8.3-7.3s-2.8-7.4-8.3-7.4zm0 9.7h-2.2v-4.7h2.2c3.3 0 3.3.8 3.3 2.3s0 2.4-3.3 2.4z"/><path d="m170.2 30-7.4-13c-.7-1.2-2.2-1.6-3.4-.9s-1.6 2.2-.9 3.4l7.4 12.9c.7 1.2 2.2 1.6 3.4.9 1.2-.6 1.6-2.1.9-3.3z"/><path d="m159.6 39.2-12.9-7.5c-1.2-.7-2.7-.3-3.4.9s-.3 2.7.9 3.4l12.9 7.5c1.2.7 2.7.3 3.4-.9s.3-2.7-.9-3.4z"/><path d="m155 52.5h-14.9c-1.4 0-2.5 1.1-2.5 2.5s1.1 2.5 2.5 2.5h14.9c1.4 0 2.5-1.1 2.5-2.5s-1.2-2.5-2.5-2.5z"/></g></g></svg>