<?xml version="1.0" encoding="utf-8"?>
<!-- Generator: Adobe Illustrator 18.0.0, SVG Export Plug-In . SVG Version: 6.00 Build 0)  -->
<!DOCTYPE svg PUBLIC "-//W3C//DTD SVG 1.1//EN" "http://www.w3.org/Graphics/SVG/1.1/DTD/svg11.dtd">
<svg version="1.1" id="OBJECTS" xmlns="http://www.w3.org/2000/svg" xmlns:xlink="http://www.w3.org/1999/xlink" x="0px" y="0px"
	 viewBox="0 0 349.3 354.1" enable-background="new 0 0 349.3 354.1" xml:space="preserve">
<g>
	<g>
		<g>
			<rect x="47.1" y="92.6" fill="#E1E1FF" width="8.7" height="253.8"/>
			<rect x="108.7" y="92.6" fill="#E1E1FF" width="8.7" height="253.8"/>
			<rect x="170.3" y="92.6" fill="#E1E1FF" width="8.7" height="253.8"/>
			<rect x="231.9" y="92.6" fill="#E1E1FF" width="8.7" height="253.8"/>
			<rect x="293.5" y="92.6" fill="#E1E1FF" width="8.7" height="253.8"/>
			<g>
				<rect x="47.1" y="92.6" fill="#BBBBFF" width="8.7" height="14.9"/>
				<rect x="108.7" y="92.6" fill="#BBBBFF" width="8.7" height="14.9"/>
				<rect x="170.3" y="92.6" fill="#BBBBFF" width="8.7" height="14.9"/>
				<rect x="231.9" y="92.6" fill="#BBBBFF" width="8.7" height="14.9"/>
				<rect x="293.5" y="92.6" fill="#BBBBFF" width="8.7" height="14.9"/>
			</g>
			<g>
				<rect x="47.1" y="180.1" fill="#BBBBFF" width="8.7" height="14.9"/>
				<rect x="108.7" y="180.1" fill="#BBBBFF" width="8.7" height="14.9"/>
				<rect x="170.3" y="180.1" fill="#BBBBFF" width="8.7" height="14.9"/>
				<rect x="231.9" y="180.1" fill="#BBBBFF" width="8.7" height="14.9"/>
				<rect x="293.5" y="180.1" fill="#BBBBFF" width="8.7" height="14.9"/>
			</g>
			<g>
				<rect x="47.1" y="268.7" fill="#BBBBFF" width="8.7" height="14.9"/>
				<rect x="108.7" y="268.7" fill="#BBBBFF" width="8.7" height="14.9"/>
				<rect x="170.3" y="268.7" fill="#BBBBFF" width="8.7" height="14.9"/>
				<rect x="231.9" y="268.7" fill="#BBBBFF" width="8.7" height="14.9"/>
				<rect x="293.5" y="268.7" fill="#BBBBFF" width="8.7" height="14.9"/>
			</g>
		</g>
		<g>
			<path fill="#D5D2FF" d="M314.8,98.4H34.4c-2,0-3.7-1.7-3.7-3.7v-7.9c0-2,1.7-3.7,3.7-3.7h280.4c2,0,3.7,1.7,3.7,3.7v7.9
				C318.5,96.8,316.9,98.4,314.8,98.4z"/>
			<path fill="#D5D2FF" d="M314.8,186.6H34.4c-2,0-3.7-1.7-3.7-3.7V175c0-2,1.7-3.7,3.7-3.7h280.4c2,0,3.7,1.7,3.7,3.7v7.9
				C318.5,185,316.9,186.6,314.8,186.6z"/>
			<path fill="#D5D2FF" d="M314.8,274.9H34.4c-2,0-3.7-1.7-3.7-3.7v-7.9c0-2,1.7-3.7,3.7-3.7h280.4c2,0,3.7,1.7,3.7,3.7v7.9
				C318.5,273.2,316.9,274.9,314.8,274.9z"/>
			<path fill="#D5D2FF" d="M341.6,354.1H7.7c-4.3,0-7.7-3.5-7.7-7.7v0c0-4.3,3.5-7.7,7.7-7.7h333.9c4.3,0,7.7,3.5,7.7,7.7v0
				C349.3,350.6,345.8,354.1,341.6,354.1z"/>
		</g>
	</g>
	<g>
		<g>
			<g>
				<g>
					<g>
						<path fill="#D5D2FF" d="M91,64.2c-3.5-1.1-2.8-4.4-2.8-4.4S91.8,60.3,91,64.2z"/>
						<path fill="#D5D2FF" d="M91,65.4c3.4-1.5,2.4-4.7,2.4-4.7S89.9,61.7,91,65.4z"/>
					</g>
					<circle fill="#BEBEFC" cx="92.8" cy="71.9" r="8.2"/>
				</g>
				<g>
					<g>
						<path fill="#BEBEFC" d="M108.8,65c-2.2-3,0.3-5.2,0.3-5.2S111.7,62.3,108.8,65z"/>
						<path fill="#BEBEFC" d="M108.1,66c3.6,0.8,4.6-2.4,4.6-2.4S109.3,62.3,108.1,66z"/>
					</g>
					<circle fill="#D5D2FF" cx="105.8" cy="72.3" r="8.2"/>
				</g>
				<g>
					<g>
						<path fill="#D5D2FF" d="M120.9,64.6c-3.7-0.2-3.9-3.6-3.9-3.6S120.6,60.7,120.9,64.6z"/>
						<path fill="#D5D2FF" d="M121.2,65.9c2.9-2.3,1.1-5.1,1.1-5.1S119.1,62.6,121.2,65.9z"/>
					</g>
					<circle fill="#BEBEFC" cx="124.6" cy="71.7" r="8.2"/>
				</g>
				<path fill="#E1E1FF" d="M142.2,75H73.5c-2.2,0-4.1,1.8-4.1,4.1l0,0c0,2.2,1.8,4.1,4.1,4.1h68.6c2.2,0,4.1-1.8,4.1-4.1l0,0
					C146.2,76.8,144.4,75,142.2,75z"/>
			</g>
			<g>
				<g>
					<g>
						<path fill="#D5D2FF" d="M182.4,64.2c-3.5-1.1-2.8-4.4-2.8-4.4S183.1,60.3,182.4,64.2z"/>
						<path fill="#D5D2FF" d="M182.4,65.4c3.4-1.5,2.4-4.7,2.4-4.7S181.2,61.7,182.4,65.4z"/>
					</g>
					<circle fill="#BEBEFC" cx="184.2" cy="71.9" r="8.2"/>
				</g>
				<g>
					<g>
						<path fill="#BEBEFC" d="M200.2,65c-2.2-3,0.3-5.2,0.3-5.2S203.1,62.3,200.2,65z"/>
						<path fill="#BEBEFC" d="M199.5,66c3.6,0.8,4.6-2.4,4.6-2.4S200.7,62.3,199.5,66z"/>
					</g>
					<circle fill="#D5D2FF" cx="197.2" cy="72.3" r="8.2"/>
				</g>
				<g>
					<g>
						<path fill="#D5D2FF" d="M212.2,64.6c-3.7-0.2-3.9-3.6-3.9-3.6S212,60.7,212.2,64.6z"/>
						<path fill="#D5D2FF" d="M212.5,65.9c2.9-2.3,1.1-5.1,1.1-5.1S210.5,62.6,212.5,65.9z"/>
					</g>
					<circle fill="#BEBEFC" cx="216" cy="71.7" r="8.2"/>
				</g>
				<path fill="#E1E1FF" d="M233.6,75h-68.6c-2.2,0-4.1,1.8-4.1,4.1l0,0c0,2.2,1.8,4.1,4.1,4.1h68.6c2.2,0,4.1-1.8,4.1-4.1l0,0
					C237.6,76.8,235.8,75,233.6,75z"/>
			</g>
		</g>
		<g>
			<g>
				<rect x="195.1" y="134.9" fill="#EFE3FF" width="15.1" height="36.2"/>
				<rect x="184.1" y="134.9" fill="#FFFFFF" width="11" height="36.2"/>
				<polygon fill="#D5D2FF" points="202.6,124.7 197.1,132.1 195.1,134.9 184.1,134.9 191.6,124.7 				"/>
				<polygon fill="#BEBEFC" points="210.2,134.9 195.1,134.9 197.1,132.1 202.6,124.7 				"/>
				<rect x="191.6" y="121.6" fill="#BEBEFC" width="11" height="3.1"/>
				<rect x="184.1" y="147.1" fill="#D5D2FF" width="11" height="13.8"/>
				<rect x="195.1" y="147.1" fill="#BEBEFC" width="15.1" height="13.8"/>
				<path fill="#FFFFFF" d="M192,155h-4.8c-0.6,0-1-0.5-1-1l0,0c0-0.6,0.5-1,1-1h4.8c0.6,0,1,0.5,1,1l0,0
					C193,154.6,192.5,155,192,155z"/>
				<path fill="none" stroke="#FFFFFF" stroke-width="0.6193" stroke-miterlimit="10" d="M205,155h-4.8c-0.6,0-1-0.5-1-1l0,0
					c0-0.6,0.5-1,1-1h4.8c0.6,0,1,0.5,1,1l0,0C206,154.6,205.6,155,205,155z"/>
			</g>
			<g>
				<rect x="213.6" y="134.9" fill="#EFE3FF" width="15.1" height="36.2"/>
				<rect x="202.6" y="134.9" fill="#FFFFFF" width="11" height="36.2"/>
				<polygon fill="#D5D2FF" points="221.1,124.7 215.6,132.1 213.6,134.9 202.6,134.9 210.1,124.7 				"/>
				<polygon fill="#BEBEFC" points="228.7,134.9 213.6,134.9 215.6,132.1 221.1,124.7 				"/>
				<rect x="210.1" y="121.6" fill="#BEBEFC" width="11" height="3.1"/>
				<rect x="202.6" y="147.1" fill="#D5D2FF" width="11" height="13.8"/>
				<rect x="213.6" y="147.1" fill="#BEBEFC" width="15.1" height="13.8"/>
				<path fill="#FFFFFF" d="M210.4,155h-4.8c-0.6,0-1-0.5-1-1l0,0c0-0.6,0.5-1,1-1h4.8c0.6,0,1,0.5,1,1l0,0
					C211.5,154.6,211,155,210.4,155z"/>
				<path fill="none" stroke="#FFFFFF" stroke-width="0.6193" stroke-miterlimit="10" d="M223.5,155h-4.8c-0.6,0-1-0.5-1-1l0,0
					c0-0.6,0.5-1,1-1h4.8c0.6,0,1,0.5,1,1l0,0C224.5,154.6,224.1,155,223.5,155z"/>
			</g>
			<g>
				<rect x="232" y="134.9" fill="#EFE3FF" width="15.1" height="36.2"/>
				<rect x="221" y="134.9" fill="#FFFFFF" width="11" height="36.2"/>
				<polygon fill="#D5D2FF" points="239.6,124.7 234.1,132.1 232,134.9 221,134.9 228.6,124.7 				"/>
				<polygon fill="#BEBEFC" points="247.2,134.9 232,134.9 234.1,132.1 239.6,124.7 				"/>
				<rect x="228.6" y="121.6" fill="#BEBEFC" width="11" height="3.1"/>
				<rect x="221" y="147.1" fill="#D5D2FF" width="11" height="13.8"/>
				<rect x="232" y="147.1" fill="#BEBEFC" width="15.1" height="13.8"/>
				<path fill="#FFFFFF" d="M228.9,155h-4.8c-0.6,0-1-0.5-1-1l0,0c0-0.6,0.5-1,1-1h4.8c0.6,0,1,0.5,1,1l0,0
					C230,154.6,229.5,155,228.9,155z"/>
				<path fill="none" stroke="#FFFFFF" stroke-width="0.6193" stroke-miterlimit="10" d="M242,155h-4.8c-0.6,0-1-0.5-1-1l0,0
					c0-0.6,0.5-1,1-1h4.8c0.6,0,1,0.5,1,1l0,0C243,154.6,242.6,155,242,155z"/>
			</g>
			<g>
				<rect x="250.5" y="134.9" fill="#EFE3FF" width="15.1" height="36.2"/>
				<rect x="239.5" y="134.9" fill="#FFFFFF" width="11" height="36.2"/>
				<polygon fill="#D5D2FF" points="258.1,124.7 252.6,132.1 250.5,134.9 239.5,134.9 247.1,124.7 				"/>
				<polygon fill="#BEBEFC" points="265.7,134.9 250.5,134.9 252.6,132.1 258.1,124.7 				"/>
				<rect x="247.1" y="121.6" fill="#BEBEFC" width="11" height="3.1"/>
				<rect x="239.5" y="147.1" fill="#D5D2FF" width="11" height="13.8"/>
				<rect x="250.5" y="147.1" fill="#BEBEFC" width="15.1" height="13.8"/>
				<path fill="#FFFFFF" d="M247.4,155h-4.8c-0.6,0-1-0.5-1-1l0,0c0-0.6,0.5-1,1-1h4.8c0.6,0,1,0.5,1,1l0,0
					C248.4,154.6,248,155,247.4,155z"/>
				<path fill="none" stroke="#FFFFFF" stroke-width="0.6193" stroke-miterlimit="10" d="M260.5,155h-4.8c-0.6,0-1-0.5-1-1l0,0
					c0-0.6,0.5-1,1-1h4.8c0.6,0,1,0.5,1,1l0,0C261.5,154.6,261,155,260.5,155z"/>
			</g>
		</g>
		<g>
			<g>
				<g>
					<path fill="#FFFFFF" d="M91.2,171.3H58.8c-2-3.4-2.2-7.6-1.5-11.8c0.7-3.9,2.2-7.8,3.7-11.1c2.3-5,4.8-8.6,4.8-8.6v-6.2h18.4
						v6.2c0,0,2.5,3.6,4.8,8.6c1.5,3.3,3,7.2,3.7,11.1C93.4,163.7,93.3,167.9,91.2,171.3z"/>
					<path fill="#D5D2FF" d="M92.7,159.5H57.3c0.7-3.9,2.2-7.8,3.7-11.1h28C90.5,151.7,92,155.6,92.7,159.5z"/>
				</g>
				<circle fill="#E9E9FF" cx="75" cy="154" r="2.8"/>
			</g>
			<g>
				<g>
					<path fill="#FFFFFF" d="M133.3,171.3h-32.5c-2-3.4-2.2-7.6-1.5-11.8c0.7-3.9,2.2-7.8,3.7-11.1c2.3-5,4.8-8.6,4.8-8.6v-6.2h18.4
						v6.2c0,0,2.5,3.6,4.8,8.6c1.5,3.3,3,7.2,3.7,11.1C135.5,163.7,135.3,167.9,133.3,171.3z"/>
					<path fill="#D5D2FF" d="M134.8,159.5H99.4c0.7-3.9,2.2-7.8,3.7-11.1h28C132.6,151.7,134.1,155.6,134.8,159.5z"/>
				</g>
				<circle fill="#E9E9FF" cx="117.1" cy="154" r="2.8"/>
			</g>
			<g>
				<g>
					<path fill="#FFFFFF" d="M175.3,171.3h-32.5c-2-3.4-2.2-7.6-1.5-11.8c0.7-3.9,2.2-7.8,3.7-11.1c2.4-5,4.8-8.6,4.8-8.6v-6.2h18.4
						v6.2c0,0,2.5,3.6,4.8,8.6c1.5,3.3,3,7.2,3.7,11.1C177.6,163.7,177.4,167.9,175.3,171.3z"/>
					<path fill="#D5D2FF" d="M176.8,159.5h-35.4c0.7-3.9,2.2-7.8,3.7-11.1h28C174.7,151.7,176.1,155.6,176.8,159.5z"/>
				</g>
				<circle fill="#E9E9FF" cx="159.1" cy="154" r="2.8"/>
			</g>
			<rect x="65.8" y="133.6" fill="#BEBEFC" width="18.4" height="5.9"/>
			<rect x="107.9" y="133.6" fill="#BEBEFC" width="18.4" height="5.9"/>
			<rect x="149.9" y="133.6" fill="#BEBEFC" width="18.4" height="5.9"/>
		</g>
	</g>
	<g>
		<path fill="#D5D2FF" d="M263.2,41.3H77.6c-6.2,0-11.2-5-11.2-11.2V11.2C66.4,5,71.4,0,77.6,0h185.6c6.2,0,11.2,5,11.2,11.2v18.9
			C274.4,36.3,269.4,41.3,263.2,41.3z"/>
		<g>
			<path fill="#E9E9FF" d="M100.2,25.6c-0.4,0.6-0.9,1.1-1.6,1.5c-0.7,0.4-1.6,0.5-2.6,0.5c-1.6,0-2.8-0.4-3.8-1.1
				c-1-0.8-1.6-1.8-1.6-3.2H94c0.1,0.5,0.2,0.9,0.6,1.2c0.3,0.3,0.7,0.5,1.2,0.5c0.4,0,0.8-0.1,1-0.4c0.2-0.2,0.4-0.5,0.4-0.9
				c0-0.4-0.1-0.6-0.3-0.9c-0.2-0.2-0.5-0.4-0.9-0.6s-0.8-0.3-1.4-0.5c-0.9-0.3-1.6-0.6-2.1-0.9c-0.6-0.3-1-0.7-1.4-1.3
				c-0.4-0.6-0.6-1.3-0.6-2.2c0-0.8,0.2-1.5,0.6-2.1c0.4-0.6,1-1.1,1.7-1.4c0.7-0.3,1.6-0.5,2.5-0.5c1.5,0,2.8,0.4,3.7,1.1
				c0.9,0.7,1.4,1.7,1.5,3h-3.6c-0.1-0.5-0.2-0.8-0.5-1.1c-0.3-0.3-0.6-0.4-1.1-0.4c-0.4,0-0.7,0.1-1,0.3c-0.2,0.2-0.4,0.5-0.4,0.9
				c0,0.3,0.1,0.6,0.3,0.8c0.2,0.2,0.5,0.4,0.8,0.6c0.3,0.1,0.8,0.3,1.4,0.5c0.9,0.3,1.6,0.6,2.2,0.9c0.6,0.3,1,0.7,1.5,1.3
				c0.4,0.6,0.6,1.3,0.6,2.2C100.7,24.3,100.5,24.9,100.2,25.6z"/>
			<path fill="#E9E9FF" d="M107.4,13.6v8c0,0.9,0.2,1.6,0.6,2.1c0.4,0.5,1,0.7,1.8,0.7c0.8,0,1.4-0.2,1.8-0.7
				c0.4-0.5,0.6-1.2,0.6-2.1v-8h3.4v8c0,1.3-0.3,2.4-0.8,3.3c-0.5,0.9-1.2,1.6-2.1,2c-0.9,0.5-1.9,0.7-3,0.7c-1.1,0-2.1-0.2-2.9-0.7
				c-0.8-0.4-1.5-1.1-2-2c-0.5-0.9-0.7-2-0.7-3.3v-8H107.4z"/>
			<path fill="#E9E9FF" d="M122.8,22.6v4.9h-3.4V13.6h5.4c1.6,0,2.9,0.4,3.8,1.2c0.9,0.8,1.3,1.9,1.3,3.3c0,0.9-0.2,1.6-0.6,2.3
				c-0.4,0.7-1,1.2-1.7,1.6c-0.8,0.4-1.7,0.6-2.8,0.6H122.8z M126.5,18.1c0-1.2-0.7-1.8-2-1.8h-1.7v3.6h1.7
				C125.8,19.9,126.5,19.3,126.5,18.1z"/>
			<path fill="#E9E9FF" d="M136.5,16.2v2.9h4.7v2.5h-4.7v3.1h5.3v2.7h-8.6V13.6h8.6v2.7H136.5z"/>
			<path fill="#E9E9FF" d="M152.3,27.4l-3-5.2h-0.8v5.2h-3.4V13.6h5.7c1.1,0,2,0.2,2.8,0.6c0.8,0.4,1.3,0.9,1.7,1.6
				c0.4,0.7,0.6,1.4,0.6,2.3c0,1-0.3,1.9-0.8,2.6c-0.6,0.7-1.4,1.2-2.4,1.5l3.3,5.5H152.3z M148.6,19.9h2.1c0.7,0,1.2-0.1,1.5-0.4
				c0.3-0.3,0.5-0.7,0.5-1.3c0-0.5-0.2-1-0.5-1.3c-0.3-0.3-0.8-0.5-1.5-0.5h-2.1V19.9z"/>
			<path fill="#E9E9FF" d="M174.8,13.7v13.8h-3.4v-8.6l-3,8.6h-2.9l-3-8.6v8.6h-3.4V13.7h4.1l3.7,9.6l3.7-9.6H174.8z"/>
			<path fill="#E9E9FF" d="M187.3,24.9h-5.2l-0.9,2.5h-3.5l5.1-13.8h3.9l5.1,13.8h-3.6L187.3,24.9z M186.4,22.4l-1.7-5.1l-1.7,5.1
				H186.4z"/>
			<path fill="#E9E9FF" d="M201.7,27.4l-3-5.2H198v5.2h-3.4V13.6h5.7c1.1,0,2,0.2,2.8,0.6c0.8,0.4,1.3,0.9,1.7,1.6
				c0.4,0.7,0.6,1.4,0.6,2.3c0,1-0.3,1.9-0.8,2.6c-0.6,0.7-1.4,1.2-2.4,1.5l3.3,5.5H201.7z M198,19.9h2.1c0.7,0,1.2-0.1,1.5-0.4
				c0.3-0.3,0.5-0.7,0.5-1.3c0-0.5-0.2-1-0.5-1.3c-0.3-0.3-0.8-0.5-1.5-0.5H198V19.9z"/>
			<path fill="#E9E9FF" d="M215.2,20.4l5.6,7.1h-4.1l-4.7-6.2v6.2h-3.4V13.6h3.4v6.1l4.7-6.1h4L215.2,20.4z"/>
			<path fill="#E9E9FF" d="M227.1,16.2v2.9h4.7v2.5h-4.7v3.1h5.3v2.7h-8.6V13.6h8.6v2.7H227.1z"/>
			<path fill="#E9E9FF" d="M245.8,13.6v2.7H242v11.2h-3.4V16.2h-3.7v-2.7H245.8z"/>
		</g>
	</g>
	<g>
		<g>
			<g>
				<path fill="#58CAD6" d="M307.5,252.8c-0.8-31.1-28.5-36.7-28.5-36.7s21-6.4,27.9,4.2S312.4,271.9,307.5,252.8z"/>
				<path fill="#349FB7" d="M312.9,254.7c-11.4-24.1-13.3-61.1,18-63.5C303,210,325.6,265.5,312.9,254.7z"/>
				<path fill="#58CAD6" d="M309.1,257.9c-0.7-26.6,12.4-61.3,42.1-50.8C318,213,316.4,272.9,309.1,257.9z"/>
			</g>
			<polygon fill="#FFFFFF" points="331,239.7 293.5,239.7 298.1,338.7 326.4,338.7 			"/>
		</g>
		<g>
			<g>
				<path fill="#58CAD6" d="M31.6,252.8c-0.8-31.1-28.5-36.7-28.5-36.7s21-6.4,27.9,4.2S36.5,271.9,31.6,252.8z"/>
				<path fill="#349FB7" d="M37.1,254.7c-11.4-24.1-13.3-61.1,18-63.5C27.1,210,49.7,265.5,37.1,254.7z"/>
				<path fill="#58CAD6" d="M33.2,257.9c-0.7-26.6,12.4-61.3,42.1-50.8C42.1,213,40.5,272.9,33.2,257.9z"/>
			</g>
			<polygon fill="#FFFFFF" points="55.1,239.7 17.7,239.7 22.2,338.7 50.5,338.7 			"/>
		</g>
	</g>
</g>
<g>
	<g>
		<g>
			<g>
				
					<rect x="85.6" y="234.4" transform="matrix(0.5534 -0.8329 0.8329 0.5534 -154.4139 202.5988)" fill="#EFE3FF" width="52.2" height="21.8"/>
				
					<rect x="70" y="227" transform="matrix(0.5534 -0.8329 0.8329 0.5534 -152.741 184.8953)" fill="#FFFFFF" width="52.2" height="15.8"/>
				<polygon fill="#FFC994" points="134.3,211.3 121.8,215.8 117.1,217.5 103.9,208.8 121.1,202.5 				"/>
				<polygon fill="#FF8C5A" points="135.2,229.6 117.1,217.5 121.8,215.8 134.3,211.3 				"/>
				
					<rect x="121" y="202.8" transform="matrix(0.8329 0.5534 -0.5534 0.8329 135.0031 -37.0967)" fill="#FF8C5A" width="15.8" height="4.4"/>
				
					<rect x="85.3" y="228.1" transform="matrix(0.5534 -0.8329 0.8329 0.5534 -154.0464 184.7724)" fill="#FFC994" width="19.9" height="15.8"/>
				
					<rect x="101" y="235.5" transform="matrix(0.5534 -0.8329 0.8329 0.5534 -155.7192 202.4755)" fill="#FF8C5A" width="19.9" height="21.8"/>
				<path fill="#FFFFFF" d="M97.3,239.2l-5.7-3.8c-0.7-0.5-0.9-1.4-0.4-2l0,0c0.5-0.7,1.4-0.9,2-0.4l5.7,3.8c0.7,0.5,0.9,1.4,0.4,2
					l0,0C98.9,239.4,98,239.6,97.3,239.2z"/>
				<path fill="none" stroke="#FFFFFF" stroke-width="0.8921" stroke-miterlimit="10" d="M113,249.6l-5.7-3.8
					c-0.7-0.5-0.9-1.4-0.4-2l0,0c0.5-0.7,1.4-0.9,2-0.4l5.7,3.8c0.7,0.5,0.9,1.4,0.4,2l0,0C114.6,249.8,113.7,250,113,249.6z"/>
			</g>
			<g>
				<rect x="132.2" y="248.6" fill="#EFE3FF" width="21.8" height="52.2"/>
				<rect x="116.4" y="248.6" fill="#FFFFFF" width="15.8" height="52.2"/>
				<polygon fill="#92DEFF" points="143.1,233.9 135.2,244.6 132.2,248.6 116.4,248.6 127.3,233.9 				"/>
				<polygon fill="#6094CC" points="154,248.6 132.2,248.6 135.2,244.6 143.1,233.9 				"/>
				<rect x="127.3" y="229.5" fill="#6094CC" width="15.8" height="4.4"/>
				<rect x="116.4" y="266.1" fill="#92DEFF" width="15.8" height="19.9"/>
				<rect x="132.2" y="266.1" fill="#6094CC" width="21.8" height="19.9"/>
				<path fill="#FFFFFF" d="M127.7,277.6h-6.9c-0.8,0-1.5-0.7-1.5-1.5l0,0c0-0.8,0.7-1.5,1.5-1.5h6.9c0.8,0,1.5,0.7,1.5,1.5l0,0
					C129.2,276.9,128.6,277.6,127.7,277.6z"/>
				<path fill="none" stroke="#FFFFFF" stroke-width="0.8921" stroke-miterlimit="10" d="M146.6,277.6h-6.9c-0.8,0-1.5-0.7-1.5-1.5
					l0,0c0-0.8,0.7-1.5,1.5-1.5h6.9c0.8,0,1.5,0.7,1.5,1.5l0,0C148,276.9,147.4,277.6,146.6,277.6z"/>
			</g>
			<g>
				<g>
					<path fill="#44D8B1" d="M82.5,225.8c-2.9-2.3-1.1-5.1-1.1-5.1S84.5,222.4,82.5,225.8z"/>
					<path fill="#1AAD9B" d="M82,227c3.7-0.2,3.9-3.5,3.9-3.5S82.3,223.1,82,227z"/>
				</g>
				<circle fill="#BF1754" cx="81.4" cy="233.6" r="8.2"/>
			</g>
			<g>
				<g>
					<path fill="#44D8B1" d="M68.3,229.4c-3.4-1.5-2.4-4.7-2.4-4.7S69.5,225.7,68.3,229.4z"/>
					<path fill="#1AAD9B" d="M68.2,230.7c3.5-1.1,2.8-4.4,2.8-4.4S67.4,226.9,68.2,230.7z"/>
				</g>
				<circle fill="#F41E60" cx="69.4" cy="237.3" r="8.2"/>
			</g>
			<g>
				<g>
					<path fill="#44D8B1" d="M93.6,231.8c-2.9-2.3-1.1-5.1-1.1-5.1S95.7,228.5,93.6,231.8z"/>
					<path fill="#1AAD9B" d="M93.1,233c3.7-0.2,3.9-3.5,3.9-3.5S93.4,229.1,93.1,233z"/>
				</g>
				<circle fill="#F41E60" cx="92.6" cy="239.7" r="8.2"/>
			</g>
			<polygon fill="#E8A69E" points="108.6,301.3 49.6,301.3 55.3,237.1 102.8,237.1 			"/>
			<g>
				<g>
					<g>
						<path fill="#FFD2A6" d="M103,281.4L103,281.4c-3-0.9-4.7-4-3.8-7l10-33.8c0.9-3,4-4.7,7-3.8l0,0c3,0.9,4.7,4,3.8,7l-10,33.8
							C109.2,280.6,106,282.3,103,281.4z"/>
						<g>
							
								<ellipse transform="matrix(0.9963 -8.625618e-002 8.625618e-002 0.9963 -20.542 10.7999)" fill="#BC8555" cx="114.7" cy="243.1" rx="3.9" ry="0.5"/>
							
								<ellipse transform="matrix(0.9963 -8.625612e-002 8.625612e-002 0.9963 -20.9877 10.6802)" fill="#BC8555" cx="113.1" cy="248.2" rx="3.9" ry="0.5"/>
							
								<ellipse transform="matrix(0.9963 -8.625612e-002 8.625612e-002 0.9963 -21.4335 10.5605)" fill="#BC8555" cx="111.5" cy="253.3" rx="3.9" ry="0.5"/>
							
								<ellipse transform="matrix(0.9963 -8.624332e-002 8.624332e-002 0.9963 -21.876 10.439)" fill="#BC8555" cx="109.9" cy="258.4" rx="3.9" ry="0.5"/>
							
								<ellipse transform="matrix(0.9963 -8.624448e-002 8.624448e-002 0.9963 -22.322 10.3195)" fill="#BC8555" cx="108.3" cy="263.5" rx="3.9" ry="0.5"/>
							
								<ellipse transform="matrix(0.9963 -8.624332e-002 8.624332e-002 0.9963 -22.7674 10.1996)" fill="#BC8555" cx="106.7" cy="268.6" rx="3.9" ry="0.5"/>
							
								<ellipse transform="matrix(0.9963 -8.625606e-002 8.625606e-002 0.9963 -23.2164 10.0816)" fill="#BC8555" cx="105.1" cy="273.7" rx="3.9" ry="0.5"/>
						</g>
					</g>
					<g>
						<path fill="#FFD2A6" d="M105.4,280.4L105.4,280.4c-2.6,1.8-6.1,1.2-7.9-1.3l-20.4-28.7c-1.8-2.6-1.2-6.1,1.3-7.9l0,0
							c2.6-1.8,6.1-1.2,7.9,1.3l20.4,28.7C108.6,275.1,108,278.6,105.4,280.4z"/>
						<g>
							
								<ellipse transform="matrix(0.5471 -0.837 0.837 0.5471 -169.88 181.1691)" fill="#BC8555" cx="82.5" cy="247.6" rx="3.9" ry="0.5"/>
							
								<ellipse transform="matrix(0.5471 -0.837 0.837 0.5471 -172.2073 185.6966)" fill="#BC8555" cx="85.5" cy="252" rx="3.9" ry="0.5"/>
							
								<ellipse transform="matrix(0.5471 -0.837 0.837 0.5471 -174.5337 190.221)" fill="#BC8555" cx="88.5" cy="256.4" rx="3.9" ry="0.5"/>
							
								<ellipse transform="matrix(0.5471 -0.837 0.837 0.5471 -176.8602 194.7455)" fill="#BC8555" cx="91.5" cy="260.8" rx="3.9" ry="0.5"/>
							
								<ellipse transform="matrix(0.5471 -0.837 0.837 0.5471 -179.1867 199.2702)" fill="#BC8555" cx="94.6" cy="265.2" rx="3.9" ry="0.5"/>
							
								<ellipse transform="matrix(0.5471 -0.837 0.837 0.5471 -181.5125 203.7917)" fill="#BC8555" cx="97.6" cy="269.6" rx="3.9" ry="0.5"/>
							
								<ellipse transform="matrix(0.5471 -0.837 0.837 0.5471 -183.8393 208.3172)" fill="#BC8555" cx="100.6" cy="274.1" rx="3.9" ry="0.5"/>
						</g>
					</g>
					<g>
						<path fill="#FCC18B" d="M101.4,279.9L101.4,279.9c-3.1,0.3-5.9-2-6.2-5.1l-3.3-35.1c-0.3-3.1,2-5.9,5.1-6.2l0,0
							c3.1-0.3,5.9,2,6.2,5.1l3.3,35.1C106.8,276.8,104.6,279.6,101.4,279.9z"/>
						<g>
							
								<ellipse transform="matrix(0.8914 -0.4532 0.4532 0.8914 -98.1336 70.4405)" fill="#BC8555" cx="97.9" cy="240" rx="3.9" ry="0.5"/>
							
								<ellipse transform="matrix(0.8914 -0.4532 0.4532 0.8914 -100.5035 71.2092)" fill="#BC8555" cx="98.3" cy="245.3" rx="3.9" ry="0.5"/>
							
								<ellipse transform="matrix(0.8914 -0.4532 0.4532 0.8914 -102.8735 71.978)" fill="#BC8555" cx="98.7" cy="250.6" rx="3.9" ry="0.5"/>
							
								<ellipse transform="matrix(0.8914 -0.4532 0.4532 0.8914 -105.2445 72.7479)" fill="#BC8555" cx="99.2" cy="256" rx="3.9" ry="0.5"/>
							
								<ellipse transform="matrix(0.8914 -0.4532 0.4532 0.8914 -107.6145 73.5166)" fill="#BC8555" cx="99.6" cy="261.3" rx="3.9" ry="0.5"/>
							
								<ellipse transform="matrix(0.8914 -0.4532 0.4532 0.8914 -109.9845 74.2853)" fill="#BC8555" cx="100" cy="266.6" rx="3.9" ry="0.5"/>
							
								<ellipse transform="matrix(0.8914 -0.4532 0.4532 0.8914 -112.3533 75.0528)" fill="#BC8555" cx="100.4" cy="272" rx="3.9" ry="0.5"/>
						</g>
					</g>
				</g>
				<polygon fill="#CE6F67" points="126.5,301.3 67.5,301.3 73.3,258.6 120.7,258.6 				"/>
			</g>
		</g>
		<g>
			<path fill="none" stroke="#6E61AF" stroke-width="3" stroke-linecap="round" stroke-linejoin="round" stroke-miterlimit="10" d="
				M142.5,222.3"/>
			<path fill="none" stroke="#988FD8" stroke-width="3" stroke-linecap="round" stroke-linejoin="round" stroke-miterlimit="10" d="
				M177.5,211.3l-34.9,11.1H12.8l24.1,67.6c2.4,6.8,8.9,11.4,16.1,11.4h59.8"/>
			<g>
				<circle fill="#473C70" cx="64" cy="341.1" r="5.3"/>
				
					<line fill="none" stroke="#988FD8" stroke-width="3" stroke-linecap="round" stroke-linejoin="round" stroke-miterlimit="10" x1="67.2" y1="329.7" x2="64.2" y2="340.5"/>
			</g>
			<g>
				<circle fill="#473C70" cx="107.7" cy="341.1" r="5.3"/>
				
					<line fill="none" stroke="#988FD8" stroke-width="3" stroke-linecap="round" stroke-linejoin="round" stroke-miterlimit="10" x1="111" y1="329.7" x2="107.9" y2="340.5"/>
			</g>
			<path fill="none" stroke="#988FD8" stroke-width="3" stroke-linecap="round" stroke-linejoin="round" stroke-miterlimit="10" d="
				M135.7,301.3l-6.2,17.2c-2.4,6.7-8.8,11.2-15.9,11.2H40.7"/>
			<path fill="#F41E60" d="M219.7,213.8h-42.2c-1.4,0-2.6-1.1-2.6-2.6l0,0c0-1.4,1.1-2.6,2.6-2.6h42.2c1.4,0,2.6,1.1,2.6,2.6l0,0
				C222.3,212.7,221.1,213.8,219.7,213.8z"/>
			<path fill="none" stroke="#6E61AF" stroke-width="3" stroke-linecap="round" stroke-linejoin="round" stroke-miterlimit="10" d="
				M220.1,211.3l-34.9,11.1H55.5l24.1,67.6c2.4,6.8,8.9,11.4,16.1,11.4h59.8l29.8-79"/>
			<path fill="none" stroke="#6E61AF" stroke-width="3" stroke-linecap="round" stroke-linejoin="round" stroke-miterlimit="10" d="
				M155.4,301.3l-6.2,17.2c-2.4,6.7-8.8,11.2-15.9,11.2H60.4"/>
			<g>
				<circle fill="#291F44" cx="126.3" cy="341.1" r="5.3"/>
				
					<line fill="none" stroke="#6E61AF" stroke-width="3" stroke-linecap="round" stroke-linejoin="round" stroke-miterlimit="10" x1="129.5" y1="329.7" x2="126.5" y2="340.5"/>
			</g>
			<g>
				<circle fill="#291F44" cx="89.2" cy="341.1" r="5.3"/>
				
					<line fill="none" stroke="#6E61AF" stroke-width="3" stroke-linecap="round" stroke-linejoin="round" stroke-miterlimit="10" x1="92.4" y1="329.7" x2="89.4" y2="340.5"/>
			</g>
			
				<line fill="none" stroke="#988FD8" stroke-width="3" stroke-linecap="round" stroke-linejoin="round" stroke-miterlimit="10" x1="26.6" y1="222.3" x2="55.5" y2="301.3"/>
			
				<line fill="none" stroke="#988FD8" stroke-width="3" stroke-linecap="round" stroke-linejoin="round" stroke-miterlimit="10" x1="39.2" y1="222.3" x2="68.1" y2="301.3"/>
			
				<line fill="none" stroke="#6E61AF" stroke-width="3" stroke-linecap="round" stroke-linejoin="round" stroke-miterlimit="10" x1="75.9" y1="222.3" x2="103.4" y2="301.3"/>
			
				<line fill="none" stroke="#6E61AF" stroke-width="3" stroke-linecap="round" stroke-linejoin="round" stroke-miterlimit="10" x1="98.8" y1="222.3" x2="117.1" y2="301.3"/>
			
				<line fill="none" stroke="#6E61AF" stroke-width="3" stroke-linecap="round" stroke-linejoin="round" stroke-miterlimit="10" x1="119.8" y1="222.3" x2="128" y2="301.3"/>
			
				<line fill="none" stroke="#6E61AF" stroke-width="3" stroke-linecap="round" stroke-linejoin="round" stroke-miterlimit="10" x1="140.6" y1="222.3" x2="138.6" y2="301.3"/>
			
				<line fill="none" stroke="#6E61AF" stroke-width="3" stroke-linecap="round" stroke-linejoin="round" stroke-miterlimit="10" x1="161.7" y1="222.3" x2="147.2" y2="301.3"/>
			
				<line fill="none" stroke="#988FD8" stroke-width="3" stroke-linecap="round" stroke-linejoin="round" stroke-miterlimit="10" x1="20.7" y1="244.6" x2="63.4" y2="244.6"/>
			
				<line fill="none" stroke="#988FD8" stroke-width="3" stroke-linecap="round" stroke-linejoin="round" stroke-miterlimit="10" x1="28.2" y1="265.6" x2="70.9" y2="265.6"/>
			
				<line fill="none" stroke="#6E61AF" stroke-width="3" stroke-linecap="round" stroke-linejoin="round" stroke-miterlimit="10" x1="63.4" y1="244.6" x2="176.8" y2="244.6"/>
			
				<line fill="none" stroke="#6E61AF" stroke-width="3" stroke-linecap="round" stroke-linejoin="round" stroke-miterlimit="10" x1="70.9" y1="265.6" x2="168.9" y2="265.6"/>
			
				<line fill="none" stroke="#988FD8" stroke-width="3" stroke-linecap="round" stroke-linejoin="round" stroke-miterlimit="10" x1="34.1" y1="282.3" x2="76.8" y2="282.3"/>
			
				<line fill="none" stroke="#6E61AF" stroke-width="3" stroke-linecap="round" stroke-linejoin="round" stroke-miterlimit="10" x1="76.8" y1="282.3" x2="162.4" y2="282.3"/>
		</g>
	</g>
	<g>
		<g>
			<path fill="#F41E60" d="M252.4,331.8c0.3,3,1.1,8.2,1.5,11.5c0.2,1.6-1,3-2.6,3h-28.6c-1.4,0-2.1-1.8-1-2.7
				c4.7-3.7,16-8.7,18.6-11.8H252.4z"/>
			<path fill="#291F44" d="M318.5,320H302c-5.6-14-17.4-43.8-21.3-55.7c-5-15.5-16.1-55.2-16.1-55.2l-3.1,17.7l-5.7,32.4
				c2.2,15.8-0.8,45.6-2.6,60.9h-13.4c-1.7-18.8-5.4-56-5.7-63.8c-0.4-10.2,4.6-78.7,4.6-78.7h48.8c0,0,3.2,7.6,13,75.2
				C309.9,271.7,315.5,299.6,318.5,320z"/>
			<g>
				<defs>
					<path id="SVGID_1_" d="M318.5,320H302c-5.6-14-17.4-43.8-21.3-55.7c-5-15.5-16.1-55.2-16.1-55.2l-3.1,17.7l-5.7,32.4
						c2.2,15.8-0.8,45.6-2.6,60.9h-13.4c-1.7-18.8-5.4-56-5.7-63.8c-0.4-10.2,4.6-78.7,4.6-78.7h48.8c0,0,3.2,7.6,13,75.2
						C309.9,271.7,315.5,299.6,318.5,320z"/>
				</defs>
				<clipPath id="SVGID_2_">
					<use xlink:href="#SVGID_1_"  overflow="visible"/>
				</clipPath>
				<path clip-path="url(#SVGID_2_)" fill="#342A59" d="M335,188.5v-1.6h-4v-12.6h-1.6v12.6H320v-12.6h-1.6v12.6H309v-12.6h-1.6
					v12.6H298v-12.6h-1.6v12.6H287v-12.6h-1.6v12.6H276v-12.6h-1.6v12.6H265v-12.6h-1.6v12.6H254v-12.6h-1.6v12.6H243v-12.6h-1.6
					v12.6H232v-12.6h-1.6v12.6H221v-12.6h-1.6v12.6H210v-12.6h-1.6v12.6h-4v1.6h4v9.4h-4v1.6h4v9.4h-4v1.6h4v9.4h-4v1.6h4v9.4h-4
					v1.6h4v9.4h-4v1.6h4v9.4h-4v1.6h4v9.4h-4v1.6h4v9.4h-4v1.6h4v9.4h-4v1.6h4v9.4h-4v1.6h4v9.4h-4v1.6h4V322h1.6v-12.6h9.4V322h1.6
					v-12.6h9.4V322h1.6v-12.6h9.4V322h1.6v-12.6h9.4V322h1.6v-12.6h9.4V322h1.6v-12.6h9.4V322h1.6v-12.6h9.4V322h1.6v-12.6h9.4V322
					h1.6v-12.6h9.4V322h1.6v-12.6h9.4V322h1.6v-12.6h9.4V322h1.6v-12.6h4v-1.6h-4v-9.4h4v-1.6h-4v-9.4h4v-1.6h-4v-9.4h4v-1.6h-4
					v-9.4h4v-1.6h-4v-9.4h4v-1.6h-4v-9.4h4v-1.6h-4v-9.4h4v-1.6h-4v-9.4h4v-1.6h-4v-9.4h4v-1.6h-4v-9.4h4v-1.6h-4v-9.4H335z
					 M318.4,188.5v9.4H309v-9.4H318.4z M265,241.9v-9.4h9.4v9.4H265z M274.4,243.4v9.4H265v-9.4H274.4z M263.4,241.9H254v-9.4h9.4
					V241.9z M263.4,243.4v9.4H254v-9.4H263.4z M263.4,254.4v9.4H254v-9.4H263.4z M265,254.4h9.4v9.4H265V254.4z M276,254.4h9.4v9.4
					H276V254.4z M276,252.9v-9.4h9.4v9.4H276z M276,241.9v-9.4h9.4v9.4H276z M276,230.9v-9.4h9.4v9.4H276z M274.4,230.9H265v-9.4
					h9.4V230.9z M263.4,230.9H254v-9.4h9.4V230.9z M252.4,230.9H243v-9.4h9.4V230.9z M252.4,232.5v9.4H243v-9.4H252.4z M252.4,243.4
					v9.4H243v-9.4H252.4z M252.4,254.4v9.4H243v-9.4H252.4z M252.4,265.4v9.4H243v-9.4H252.4z M254,265.4h9.4v9.4H254V265.4z
					 M265,265.4h9.4v9.4H265V265.4z M276,265.4h9.4v9.4H276V265.4z M287,265.4h9.4v9.4H287V265.4z M287,263.9v-9.4h9.4v9.4H287z
					 M287,252.9v-9.4h9.4v9.4H287z M287,241.9v-9.4h9.4v9.4H287z M287,230.9v-9.4h9.4v9.4H287z M287,219.9v-9.4h9.4v9.4H287z
					 M285.4,219.9H276v-9.4h9.4V219.9z M274.4,219.9H265v-9.4h9.4V219.9z M263.4,219.9H254v-9.4h9.4V219.9z M252.4,219.9H243v-9.4
					h9.4V219.9z M241.4,219.9H232v-9.4h9.4V219.9z M241.4,221.5v9.4H232v-9.4H241.4z M241.4,232.5v9.4H232v-9.4H241.4z M241.4,243.4
					v9.4H232v-9.4H241.4z M241.4,254.4v9.4H232v-9.4H241.4z M241.4,265.4v9.4H232v-9.4H241.4z M241.4,276.4v9.4H232v-9.4H241.4z
					 M243,276.4h9.4v9.4H243V276.4z M254,276.4h9.4v9.4H254V276.4z M265,276.4h9.4v9.4H265V276.4z M276,276.4h9.4v9.4H276V276.4z
					 M287,276.4h9.4v9.4H287V276.4z M298,276.4h9.4v9.4H298V276.4z M298,274.8v-9.4h9.4v9.4H298z M298,263.9v-9.4h9.4v9.4H298z
					 M298,252.9v-9.4h9.4v9.4H298z M298,241.9v-9.4h9.4v9.4H298z M298,230.9v-9.4h9.4v9.4H298z M298,219.9v-9.4h9.4v9.4H298z
					 M298,208.9v-9.4h9.4v9.4H298z M296.4,208.9H287v-9.4h9.4V208.9z M285.4,208.9H276v-9.4h9.4V208.9z M274.4,208.9H265v-9.4h9.4
					V208.9z M263.4,208.9H254v-9.4h9.4V208.9z M252.4,208.9H243v-9.4h9.4V208.9z M241.4,208.9H232v-9.4h9.4V208.9z M230.5,208.9H221
					v-9.4h9.4V208.9z M230.5,210.5v9.4H221v-9.4H230.5z M230.5,221.5v9.4H221v-9.4H230.5z M230.5,232.5v9.4H221v-9.4H230.5z
					 M230.5,243.4v9.4H221v-9.4H230.5z M230.5,254.4v9.4H221v-9.4H230.5z M230.5,265.4v9.4H221v-9.4H230.5z M230.5,276.4v9.4H221
					v-9.4H230.5z M230.5,287.4v9.4H221v-9.4H230.5z M232,287.4h9.4v9.4H232V287.4z M243,287.4h9.4v9.4H243V287.4z M254,287.4h9.4
					v9.4H254V287.4z M265,287.4h9.4v9.4H265V287.4z M276,287.4h9.4v9.4H276V287.4z M287,287.4h9.4v9.4H287V287.4z M298,287.4h9.4
					v9.4H298V287.4z M309,287.4h9.4v9.4H309V287.4z M309,285.8v-9.4h9.4v9.4H309z M309,274.8v-9.4h9.4v9.4H309z M309,263.9v-9.4h9.4
					v9.4H309z M309,252.9v-9.4h9.4v9.4H309z M309,241.9v-9.4h9.4v9.4H309z M309,230.9v-9.4h9.4v9.4H309z M309,219.9v-9.4h9.4v9.4
					H309z M309,208.9v-9.4h9.4v9.4H309z M307.4,188.5v9.4H298v-9.4H307.4z M296.4,188.5v9.4H287v-9.4H296.4z M285.4,188.5v9.4H276
					v-9.4H285.4z M274.4,188.5v9.4H265v-9.4H274.4z M263.4,188.5v9.4H254v-9.4H263.4z M252.4,188.5v9.4H243v-9.4H252.4z
					 M241.4,188.5v9.4H232v-9.4H241.4z M230.5,188.5v9.4H221v-9.4H230.5z M210,188.5h9.4v9.4H210V188.5z M210,199.5h9.4v9.4H210
					V199.5z M210,210.5h9.4v9.4H210V210.5z M210,221.5h9.4v9.4H210V221.5z M210,232.5h9.4v9.4H210V232.5z M210,243.4h9.4v9.4H210
					V243.4z M210,254.4h9.4v9.4H210V254.4z M210,265.4h9.4v9.4H210V265.4z M210,276.4h9.4v9.4H210V276.4z M210,287.4h9.4v9.4H210
					V287.4z M210,307.8v-9.4h9.4v9.4H210z M221,307.8v-9.4h9.4v9.4H221z M232,307.8v-9.4h9.4v9.4H232z M243,307.8v-9.4h9.4v9.4H243z
					 M254,307.8v-9.4h9.4v9.4H254z M265,307.8v-9.4h9.4v9.4H265z M276,307.8v-9.4h9.4v9.4H276z M287,307.8v-9.4h9.4v9.4H287z
					 M298,307.8v-9.4h9.4v9.4H298z M309,307.8v-9.4h9.4v9.4H309z M329.4,307.8H320v-9.4h9.4V307.8z M329.4,296.8H320v-9.4h9.4V296.8
					z M329.4,285.8H320v-9.4h9.4V285.8z M329.4,274.8H320v-9.4h9.4V274.8z M329.4,263.9H320v-9.4h9.4V263.9z M329.4,252.9H320v-9.4
					h9.4V252.9z M329.4,241.9H320v-9.4h9.4V241.9z M329.4,230.9H320v-9.4h9.4V230.9z M329.4,219.9H320v-9.4h9.4V219.9z M329.4,208.9
					H320v-9.4h9.4V208.9z M329.4,197.9H320v-9.4h9.4V197.9z"/>
			</g>
			<path fill="#F41E60" d="M321.7,346.4c0,0-21.6,0-22.6,0c-1.1,0-0.3-3,1.6-4.8c1.4-1.3,4-5.6,4.6-9.7h14.8
				C321.3,340.7,321.7,346.4,321.7,346.4z"/>
			<path fill="#FFC5C5" d="M305.3,331.8c0.2-1.6,0.2-3.2-0.4-4.5c-0.2-0.4-1.3-3.2-3-7.4h16.5c0.6,4.3,1.2,8.4,1.6,11.9H305.3z"/>
			<path fill="#FFC5C5" d="M252.2,329.6c0,0.3,0.1,1.1,0.2,2.2h-12.1c0.3-0.4,0.5-0.8,0.5-1.1c0-0.8-0.3-4.9-0.9-10.8h13.4
				C252.7,325.5,252.2,329.2,252.2,329.6z"/>
			<path fill="#4C407A" d="M253,321.9h-12.8c-1.6,0-2.8-1.3-2.8-2.8l0,0c0-1.6,1.3-2.8,2.8-2.8H253c1.6,0,2.8,1.3,2.8,2.8l0,0
				C255.9,320.6,254.6,321.9,253,321.9z"/>
			<path fill="#4C407A" d="M316.6,321.9h-12.8c-1.6,0-2.8-1.3-2.8-2.8l0,0c0-1.6,1.3-2.8,2.8-2.8h12.8c1.6,0,2.8,1.3,2.8,2.8l0,0
				C319.4,320.6,318.1,321.9,316.6,321.9z"/>
			<polygon fill="#191330" points="264.7,209 261.6,226.7 260,199 			"/>
		</g>
		<g>
			<g>
				<path fill="#FFC5C5" d="M234.7,155.5c0,0-1.4,4.1-3.1,8.8c-2.2,6.2-4.8,13.5-5.4,14.9c-1.1,2.5-21.4,26.6-21.4,26.6l1,3h-3
					c-1.3,1.4-0.8,5.9-0.8,5.9s-0.5,0.7-1.6,1.1c-1.1,0.4-2.1-0.5-2.1-0.5s-0.4,0.2-1.9,0.5c-1.6,0.2-2.4-0.4-2.4-0.4
					s-0.2,0.4-1.4,0.7c-1.2,0.2-2.9-0.7-2.9-0.7s-2.1,0.4-2.9-0.5c-0.8-0.9,0.1-4.6,1-8.2s9.2-3.8,9.2-3.8s7.6-13.8,10.8-20.2
					c3.2-6.4,7.3-10.3,7.3-10.3l3.9-18.7l1-4.5L234.7,155.5z"/>
				<path fill="#FFABAB" d="M234.7,155.5c0,0-1.4,4.1-3.1,8.8c-3.6-3.2-9.5-8.5-12.5-10.8l1-4.5L234.7,155.5z"/>
				
					<path fill="none" stroke="#EF6F7B" stroke-width="0.75" stroke-linecap="round" stroke-linejoin="round" stroke-miterlimit="10" d="
					M198.3,215.2c-0.6-2.4-0.3-6.1,0.5-7.3"/>
				
					<path fill="none" stroke="#EF6F7B" stroke-width="0.75" stroke-linecap="round" stroke-linejoin="round" stroke-miterlimit="10" d="
					M194,215.3c-0.9-3.3,0.2-7.2,1-8"/>
				
					<path fill="none" stroke="#EF6F7B" stroke-width="0.75" stroke-linecap="round" stroke-linejoin="round" stroke-miterlimit="10" d="
					M189.8,215.3c-0.5-4,0.6-7.8,0.8-8"/>
			</g>
			<path fill="#B277F7" d="M301.6,145.8l-1.7,0.6l-8.9,8.5l-3.8,3.6l0.5,19h-48.8l0.6-31.1l-3.9,10.8l-8.6-3.3l-8.5-3.3
				c0,0,6.9-33.7,13.5-37.8c4.4-2.6,12.7-5.7,17.9-7.6c2.8-1,4.6-1.6,4.6-1.6l9.7-1c0,0,2.2,0.1,5.2,0.5c6.3,0.7,16.2,2.1,18.8,4.8
				c3.2,3.3,10.6,28.2,12.7,35.7C301.4,145,301.6,145.8,301.6,145.8z"/>
			<path fill="#9556EF" d="M257.8,112.2c-8.5-0.2-8.6-4.5-7.9-6.9c2.8-1,4.6-1.6,4.6-1.6l9.7-1c0,0,2.2,0.1,5.2,0.5
				C270.7,106.9,267.9,112.4,257.8,112.2z"/>
			<path fill="#9556EF" d="M301.6,145.8l-1.7,0.6l-8.9,8.5l-3.8,0.6l-5.8-6.4c0.3-1-4.9-26.3-5.3-28.1c0.4,1.3,5.3,16.8,13,20.7
				c4.4,2.2,8.8,2.3,11.8,2C301.4,145,301.6,145.8,301.6,145.8z"/>
			<g>
				<g>
					<path fill="#FFD2A6" d="M261.4,154.6L261.4,154.6c-3,0.8-6.1-1.1-6.9-4.1l-8.5-34.2c-0.8-3,1.1-6.1,4.1-6.9h0
						c3-0.8,6.1,1.1,6.9,4.1l8.5,34.2C266.3,150.8,264.5,153.9,261.4,154.6z"/>
					<g>
						
							<ellipse transform="matrix(0.8144 -0.5803 0.5803 0.8144 -20.3494 167.7375)" fill="#BC8555" cx="252" cy="115.7" rx="3.9" ry="0.5"/>
						
							<ellipse transform="matrix(0.8144 -0.5803 0.5803 0.8144 -23.1494 169.3982)" fill="#BC8555" cx="253.2" cy="120.9" rx="3.9" ry="0.5"/>
						
							<ellipse transform="matrix(0.8144 -0.5803 0.5803 0.8144 -25.948 171.0669)" fill="#BC8555" cx="254.4" cy="126.1" rx="3.9" ry="0.5"/>
						
							<ellipse transform="matrix(0.8144 -0.5803 0.5803 0.8144 -28.7476 172.7294)" fill="#BC8555" cx="255.6" cy="131.3" rx="3.9" ry="0.5"/>
						
							<ellipse transform="matrix(0.8144 -0.5803 0.5803 0.8144 -31.5463 174.3981)" fill="#BC8555" cx="256.8" cy="136.5" rx="3.9" ry="0.5"/>
						
							<ellipse transform="matrix(0.8144 -0.5803 0.5803 0.8144 -34.3455 176.0626)" fill="#BC8555" cx="258.1" cy="141.7" rx="3.9" ry="0.5"/>
						
							<ellipse transform="matrix(0.8144 -0.5803 0.5803 0.8144 -37.1443 177.7316)" fill="#BC8555" cx="259.3" cy="146.9" rx="3.9" ry="0.5"/>
					</g>
				</g>
				<g>
					<path fill="#FFD2A6" d="M267.7,157.7L267.7,157.7c-3-0.9-4.7-4-3.8-7l10-33.8c0.9-3,4-4.7,7-3.8l0,0c3,0.9,4.7,4,3.8,7
						l-10,33.8C273.9,156.9,270.7,158.6,267.7,157.7z"/>
					<g>
						
							<ellipse transform="matrix(0.9963 -8.624332e-002 8.624332e-002 0.9963 -9.2578 24.5407)" fill="#BC8555" cx="279.4" cy="119.4" rx="3.9" ry="0.5"/>
						
							<ellipse transform="matrix(0.9963 -8.624332e-002 8.624332e-002 0.9963 -9.7035 24.421)" fill="#BC8555" cx="277.8" cy="124.5" rx="3.9" ry="0.5"/>
						
							<ellipse transform="matrix(0.9963 -8.625612e-002 8.625612e-002 0.9963 -10.1505 24.305)" fill="#BC8555" cx="276.2" cy="129.6" rx="3.9" ry="0.5"/>
						
							<ellipse transform="matrix(0.9963 -8.625723e-002 8.625723e-002 0.9963 -10.5963 24.1856)" fill="#BC8555" cx="274.6" cy="134.7" rx="3.9" ry="0.5"/>
						
							<ellipse transform="matrix(0.9963 -8.625612e-002 8.625612e-002 0.9963 -11.042 24.0655)" fill="#BC8555" cx="273" cy="139.8" rx="3.9" ry="0.5"/>
						
							<ellipse transform="matrix(0.9963 -8.624332e-002 8.624332e-002 0.9963 -11.4862 23.9422)" fill="#BC8555" cx="271.4" cy="144.9" rx="3.9" ry="0.5"/>
						
							<ellipse transform="matrix(0.9963 -8.624332e-002 8.624332e-002 0.9963 -11.9318 23.8224)" fill="#BC8555" cx="269.7" cy="150" rx="3.9" ry="0.5"/>
					</g>
				</g>
				<g>
					<g>
						<path fill="#44D8B1" d="M265.5,124.1c-3.2-1.9-1.7-5-1.7-5S267.1,120.5,265.5,124.1z"/>
						<path fill="#1AAD9B" d="M265.2,125.3c3.6-0.6,3.4-4,3.4-4S264.9,121.4,265.2,125.3z"/>
					</g>
					<circle fill="#F41E60" cx="265.5" cy="132" r="8.2"/>
				</g>
				<polygon fill="#E8A69E" points="283,183.3 243.6,183.3 239.4,131 287.2,131 				"/>
			</g>
			<path fill="#FFC5C5" d="M300.3,157.6c0,4.2-1.2,8.3-6.8,10c-3.5,1-12.7,2.4-19.1,3.3c-1.3,0.2-2.5,0.3-3.5,0.5
				c-2,0.3-3.4,0.4-3.4,0.4s-6.5,3.2-10.9,2.5c-4.4-0.6-7.5-6.6-7.5-6.6s-2.3-1.4-1.9-2.7c0.4-1.3,5.4,0.7,10.1,0.5
				c4.8-0.2,5.3-0.8,5.3-0.8s-1.1-1.1-1.8-1.5c-0.7-0.4-1.8-2.3,0.8-2.3c2.6,0,7.1,2.3,7.1,2.3s0.4-0.1,1-0.4
				c0.7-0.3,1.7-0.6,2.8-1.1c2.7-1.1,6.1-2.5,8-3.7c3.4-2.1,4.7-2.6,4.7-2.6l0.3-3.8l0-0.2l0.1-1.3c5.7-3.6,14.2-3.8,14.2-3.8
				s0.1,1.7,0.2,3.9C300.2,152.5,300.3,155.5,300.3,157.6z"/>
			<path fill="#FFABAB" d="M274.4,170.8c-1.3,0.2-2.5,0.3-3.5,0.5l-1.2-8.6c0.7-0.3,1.7-0.6,2.8-1.1
				C272.7,164.5,273.7,168.5,274.4,170.8z"/>
			<path fill="#291F44" d="M270.9,172.4l-1.2,0c-0.6,0-1.1-0.5-1.1-1.1l-0.3-8.7c0-0.6,0.5-1.1,1.1-1.1l1.2,0c0.6,0,1.1,0.5,1.1,1.1
				l0.3,8.7C271.9,171.9,271.5,172.4,270.9,172.4z"/>
			<path fill="#FFABAB" d="M291.8,154.2c0,0-4.2,0.4-6.6,1.3l0.3-4C289.4,152.1,291.8,154.2,291.8,154.2z"/>
			<path fill="#FFABAB" d="M300.1,150.2c-4.2-0.3-9.8,0.1-14.5,1.5l0-0.2l0.1-1.3c5.7-3.6,14.2-3.8,14.2-3.8S300,148,300.1,150.2z"
				/>
			<path fill="#9556EF" d="M239.4,146.4l-3.9,10.8l-8.6-3.3c5.8-7.9,8.7-27.1,11.9-27.8C234.3,134.2,239.4,146.4,239.4,146.4z"/>
		</g>
		<g>
			<path fill="#291F44" d="M248.6,61c-7.5-1.6-11.7,3.9-11,11.6c0.7,7.7-6.9,23.1-0.1,29.8c6.9,6.7,9.3,1.8,17.2,0
				c7.8-1.8,21.5,1,24.4-3.8c2.9-4.8,3.6-14.6-0.9-21.3C273.8,70.5,265.8,47.3,248.6,61z"/>
			<path fill="#FFABAB" d="M266.6,105.8c0,0-2.8,3.3-7.6,3.5c-4.8,0.2-6.5-2.6-6.5-2.6l-0.3-3l-0.5-6.1l10.2-6.2l4.7-2.9
				C264.4,93.6,266.6,105.8,266.6,105.8z"/>
			<path fill="#EF6F7B" d="M264.1,93.8c-1.7,7.2-5.3,9.2-11.9,10l-0.5-6.1l10.2-6.2C263.6,91.4,264.6,92,264.1,93.8z"/>
			<path fill="#FFC5C5" d="M241.6,75c-0.3,3.7,1,6.4,0.9,9.2c-0.1,2.8,0.9,15.5,11.8,15.6c10.8,0.1,13.9-12.9,13.9-12.9
				s3.2,0.1,4.2-2.9c1-3-0.4-5.4-2.3-5.2c-1.9,0.2-3.1,4.4-3.1,4.4l-2.6-7.4C264.5,75.9,252.5,78.3,241.6,75z"/>
			
				<path fill="none" stroke="#EF6F7B" stroke-width="0.75" stroke-linecap="round" stroke-linejoin="round" stroke-miterlimit="10" d="
				M270.9,81.2c-0.8-0.9-2.1,1.8-1.4,2.9"/>
			
				<path fill="none" stroke="#EF6F7B" stroke-width="0.75" stroke-linecap="round" stroke-linejoin="round" stroke-miterlimit="10" d="
				M251.9,83.6l-1,3.6c-0.2,0.6,0.2,1.2,0.8,1.4l0.9,0.3"/>
			<circle fill="#291F44" cx="258" cy="83.4" r="1"/>
			<circle fill="#291F44" cx="247" cy="84.7" r="1"/>
			
				<path fill="none" stroke="#291F44" stroke-width="0.75" stroke-linecap="round" stroke-linejoin="round" stroke-miterlimit="10" d="
				M255.5,80c0,0,1.8-1.1,4.5-0.3"/>
			
				<path fill="none" stroke="#291F44" stroke-width="0.75" stroke-linecap="round" stroke-linejoin="round" stroke-miterlimit="10" d="
				M249.3,80.8c0,0-2-0.7-4.5,0.8"/>
			<path fill="#FFFFFF" d="M258.7,90.7c0.4,1.6-0.6,3.2-2.2,3.6c-1.6,0.4-3.2-0.6-3.6-2.2"/>
		</g>
	</g>
</g>
</svg>
