<svg id="Layer_1_copy_2" height="512" viewBox="0 0 64 64" width="512" xmlns="http://www.w3.org/2000/svg" data-name="Layer 1 copy 2"><path d="m5.09 30.562-4.09-20.52 55.265-9.042 2.231 13.332z" fill="#fbe41a"/><path d="m5.275 28.725-.12-15.725 55.983 1.398-1.032 11.152z" fill="#91b472"/><path d="m1 52.273 6.571-34.883 55.429 8.61-7.142 37.125z" fill="#6a951f"/><ellipse cx="13.63" cy="34.81" fill="#fbe41a" rx="4.249" ry="4.226" transform="matrix(.175 -.985 .985 .175 -23.025 42.157)"/><ellipse cx="51.63" cy="42.81" fill="#fbe41a" rx="4.249" ry="4.226" transform="matrix(.175 -.985 .985 .175 .467 86.178)"/><ellipse cx="32.078" cy="40.001" fill="#fcc325" rx="11.154" ry="11.094" transform="matrix(.175 -.985 .985 .175 -12.908 64.606)"/><g fill="#6a951f"><path d="m31.726 47.015a3.015 3.015 0 0 1 -1.061-.192l-1.708-.639a3.04 3.04 0 0 1 -1.782-3.914l.368-.983a1 1 0 1 1 1.873.7l-.368.983a1.041 1.041 0 0 0 .61 1.34l1.707.639a1.043 1.043 0 0 0 1.34-.61l.271-.724a1.04 1.04 0 0 0 -.111-.944l-2.97-3.9a3.04 3.04 0 0 1 3.554-4.593l1.709.64a3.039 3.039 0 0 1 1.781 3.913l-.1.257a1 1 0 1 1 -1.875-.7l.1-.261a1.039 1.039 0 0 0 -.608-1.341l-1.709-.64a1.04 1.04 0 0 0 -1.228 1.555l2.97 3.9a3.064 3.064 0 0 1 .359 2.81l-.271.725a3.048 3.048 0 0 1 -2.851 1.979z"/><path d="m33.931 36.329a1 1 0 0 1 -.937-1.351l.7-1.873a1 1 0 0 1 1.873.7l-.7 1.873a1 1 0 0 1 -.936.651z"/><path d="m29.375 48.5a1 1 0 0 1 -.937-1.351l.7-1.873a1 1 0 1 1 1.873.7l-.7 1.873a1 1 0 0 1 -.936.651z"/></g><g opacity=".2"><path d="m58.131 51.307 4.869-25.307-55.429-8.61-2.2 11.7c9.369 6.392 32.275 20.587 52.76 22.217z" fill="#fff"/></g></svg>