<svg height="512" viewBox="0 0 128 128" width="512" xmlns="http://www.w3.org/2000/svg"><g><path d="m43.605 29.12v3.131a7.288 7.288 0 0 1 -14.575 0v-3.131h-22.724v69.76h22.724v-3.131a7.288 7.288 0 0 1 14.575 0v3.131h78.089v-69.76z" fill="#f95050"/><circle cx="82.649" cy="64" fill="#e2e8ed" r="22.758"/><g fill="#6d7a84"><path d="m77.307 77.191a1.751 1.751 0 0 1 -1.585-2.49l10.683-22.882a1.75 1.75 0 0 1 3.172 1.48l-10.683 22.882a1.752 1.752 0 0 1 -1.587 1.01z"/><path d="m76.206 60.531a4.861 4.861 0 1 1 4.861-4.861 4.866 4.866 0 0 1 -4.861 4.861zm0-6.222a1.361 1.361 0 1 0 1.361 1.361 1.362 1.362 0 0 0 -1.361-1.361z"/><path d="m89.092 77.191a4.861 4.861 0 1 1 4.861-4.861 4.867 4.867 0 0 1 -4.861 4.861zm0-6.222a1.361 1.361 0 1 0 1.361 1.361 1.363 1.363 0 0 0 -1.361-1.361z"/></g><path d="m36.317 82.97a1.75 1.75 0 0 1 -1.75-1.75v-3a1.75 1.75 0 0 1 3.5 0v3a1.749 1.749 0 0 1 -1.75 1.75zm0-11a1.75 1.75 0 0 1 -1.75-1.75v-3a1.75 1.75 0 0 1 3.5 0v3a1.749 1.749 0 0 1 -1.75 1.75zm0-11a1.75 1.75 0 0 1 -1.75-1.75v-3a1.75 1.75 0 0 1 3.5 0v3a1.749 1.749 0 0 1 -1.75 1.75zm0-11a1.75 1.75 0 0 1 -1.75-1.75v-3a1.75 1.75 0 0 1 3.5 0v3a1.749 1.749 0 0 1 -1.75 1.75z" fill="#e2e8ed"/></g></svg>