<?xml version="1.0" encoding="iso-8859-1"?>
<!-- Generator: Adobe Illustrator 19.0.0, SVG Export Plug-In . SVG Version: 6.00 Build 0)  -->
<svg version="1.1" id="Capa_1" xmlns="http://www.w3.org/2000/svg" xmlns:xlink="http://www.w3.org/1999/xlink" x="0px" y="0px"
	 viewBox="0 0 512 512" style="enable-background:new 0 0 512 512;" xml:space="preserve">
<path style="fill:#8C70C2;" d="M256,121.714c-74.046,0-134.287,60.241-134.287,134.287S181.954,390.287,256,390.287
	s134.287-60.241,134.287-134.287S330.046,121.714,256,121.714z"/>
<path style="fill:#A38DCE;" d="M256,146.893c-60.163,0-109.108,48.947-109.108,109.108S195.837,365.109,256,365.109
	s109.108-48.947,109.108-109.108S316.162,146.893,256,146.893z"/>
<g>
	<path style="fill:#FDC572;" d="M230.821,37.785c0-13.906,11.273-25.179,25.179-25.179s25.179,11.273,25.179,25.179
		c0,10.547-14.485,38.893-21.482,51.97c-1.581,2.955-5.812,2.955-7.394,0C245.306,76.677,230.821,48.331,230.821,37.785z"/>
	<path style="fill:#FDC572;" d="M83.893,119.502c-9.833-9.833-9.833-25.776,0-35.608s25.776-9.833,35.608,0
		c7.458,7.458,17.259,37.744,21.558,51.939c0.971,3.208-2.021,6.2-5.228,5.228C121.637,136.761,91.352,126.96,83.893,119.502z"/>
	<path style="fill:#FDC572;" d="M37.784,281.179c-13.906,0-25.179-11.273-25.179-25.179s11.273-25.179,25.179-25.179
		c10.547,0,38.893,14.485,51.97,21.482c2.955,1.581,2.955,5.812,0,7.394C76.677,266.694,48.332,281.179,37.784,281.179z"/>
	<path style="fill:#FDC572;" d="M119.501,428.106c-9.833,9.833-25.776,9.833-35.608,0c-9.833-9.833-9.833-25.776,0-35.608
		c7.458-7.458,37.744-17.259,51.939-21.558c3.208-0.971,6.2,2.021,5.228,5.228C136.762,390.363,126.96,420.648,119.501,428.106z"/>
	<path style="fill:#FDC572;" d="M281.179,474.217c0,13.906-11.273,25.179-25.179,25.179c-13.906,0-25.179-11.273-25.179-25.179
		c0-10.547,14.485-38.893,21.482-51.97c1.581-2.955,5.812-2.955,7.394,0C266.693,435.323,281.179,463.669,281.179,474.217z"/>
	<path style="fill:#FDC572;" d="M428.106,392.498c9.833,9.833,9.833,25.776,0,35.608c-9.833,9.833-25.776,9.833-35.608,0
		c-7.458-7.458-17.259-37.744-21.558-51.939c-0.971-3.208,2.021-6.2,5.228-5.228C390.362,375.239,420.648,385.04,428.106,392.498z"
		/>
	<path style="fill:#FDC572;" d="M474.216,230.822c13.906,0,25.179,11.273,25.179,25.179c0,13.906-11.273,25.179-25.179,25.179
		c-10.547,0-38.893-14.485-51.97-21.482c-2.955-1.581-2.955-5.812,0-7.394C435.323,245.306,463.669,230.822,474.216,230.822z"/>
	<path style="fill:#FDC572;" d="M392.498,83.894c9.833-9.833,25.776-9.833,35.608,0c9.832,9.833,9.833,25.776,0,35.608
		c-7.458,7.458-37.744,17.259-51.939,21.558c-3.208,0.971-6.2-2.021-5.228-5.228C375.239,121.637,385.04,91.352,392.498,83.894z"/>
</g>
<g>
	<path style="fill:#D1C6E7;" d="M175.701,70.012c-6.441,0-10.2-8.067-5.985-12.977c4.522-5.268,13.64-2.06,13.844,4.892
		C183.688,66.269,180.048,70.012,175.701,70.012z"/>
	<path style="fill:#D1C6E7;" d="M194.978,116.544c-3.088,0-6.018-1.829-7.272-4.86l-6.424-15.508
		c-1.663-4.015,0.243-8.617,4.258-10.28c4.014-1.663,8.617,0.242,10.28,4.258l6.424,15.508
		C204.351,110.747,200.505,116.544,194.978,116.544z"/>
	<path style="fill:#D1C6E7;" d="M162.859,39.004c-3.088,0-6.018-1.829-7.272-4.86l-9.635-23.262
		c-1.663-4.015,0.243-8.617,4.258-10.28c4.014-1.663,8.617,0.242,10.28,4.258l9.635,23.262
		C172.232,33.207,168.386,39.004,162.859,39.004z"/>
	<path style="fill:#D1C6E7;" d="M62.155,183.569c-3.449,0-6.553-2.32-7.538-5.619c-0.967-3.239,0.3-6.839,3.098-8.743
		c5.91-4.02,13.928,1.649,12.009,8.586C68.793,181.163,65.66,183.569,62.155,183.569z"/>
	<path style="fill:#D1C6E7;" d="M108.67,202.846c-1.004,0-2.024-0.193-3.008-0.601l-15.508-6.424
		c-4.015-1.663-5.921-6.265-4.258-10.28c1.662-4.014,6.266-5.924,10.28-4.258l15.508,6.424c3.311,1.371,5.317,4.931,4.765,8.474
		C115.859,199.967,112.505,202.846,108.67,202.846z"/>
	<path style="fill:#D1C6E7;" d="M31.129,170.727c-1.004,0-2.024-0.193-3.008-0.601L4.859,160.49
		c-4.015-1.663-5.921-6.265-4.258-10.28c1.663-4.014,6.267-5.923,10.28-4.258l23.262,9.636c4.015,1.663,5.921,6.265,4.258,10.28
		C37.147,168.898,34.217,170.727,31.129,170.727z"/>
	<path style="fill:#D1C6E7;" d="M62.155,344.168c-3.224,0-6.177-2.034-7.341-5.039c-1.274-3.292-0.135-7.178,2.752-9.229
		c5.511-3.914,13.409,0.802,12.368,7.552C69.35,341.249,66.011,344.168,62.155,344.168z"/>
	<path style="fill:#D1C6E7;" d="M93.168,331.319c-3.088,0-6.018-1.829-7.272-4.859c-1.663-4.015,0.243-8.617,4.258-10.28
		l15.508-6.424c4.014-1.663,8.617,0.242,10.28,4.258c1.663,4.015-0.243,8.617-4.258,10.28l-15.508,6.424
		C95.191,331.126,94.172,331.319,93.168,331.319z"/>
	<path style="fill:#D1C6E7;" d="M7.873,366.649c-3.836,0-7.19-2.878-7.779-6.666c-0.552-3.543,1.454-7.102,4.765-8.474l23.262-9.636
		c4.015-1.661,8.617,0.242,10.28,4.258c1.663,4.016-0.243,8.617-4.258,10.28l-23.262,9.636
		C9.897,366.456,8.876,366.649,7.873,366.649z"/>
	<path style="fill:#D1C6E7;" d="M175.701,457.724c-0.504,0-1.028-0.052-1.532-0.156c-0.504-0.106-0.997-0.252-1.479-0.451
		c-0.472-0.199-0.923-0.442-1.353-0.724s-0.829-0.608-1.196-0.976c-0.367-0.368-0.692-0.766-0.976-1.197
		c-0.283-0.431-0.525-0.881-0.724-1.353c-0.199-0.483-0.346-0.976-0.451-1.478c-0.105-0.504-0.157-1.019-0.157-1.533
		c0-2.076,0.839-4.101,2.308-5.571c0.367-0.357,0.766-0.692,1.196-0.976c0.43-0.284,0.881-0.525,1.353-0.724
		c0.483-0.198,0.976-0.346,1.479-0.451c2.56-0.514,5.277,0.325,7.103,2.151c1.458,1.469,2.298,3.494,2.298,5.571
		c0,0.514-0.042,1.028-0.147,1.533c-0.105,0.503-0.252,0.996-0.451,1.478c-0.199,0.472-0.441,0.923-0.724,1.353
		s-0.619,0.829-0.976,1.197c-0.367,0.367-0.766,0.692-1.196,0.976c-0.43,0.283-0.892,0.525-1.364,0.724
		c-0.472,0.198-0.965,0.345-1.469,0.451C176.739,457.671,176.215,457.724,175.701,457.724z"/>
	<path style="fill:#D1C6E7;" d="M188.548,426.705c-5.526,0-9.373-5.796-7.266-10.881l6.424-15.508
		c1.663-4.014,6.265-5.924,10.28-4.258c4.015,1.663,5.921,6.265,4.258,10.28l-6.424,15.508
		C194.566,424.876,191.636,426.705,188.548,426.705z"/>
	<path style="fill:#D1C6E7;" d="M153.218,512c-5.526,0-9.373-5.796-7.266-10.881l9.635-23.262c1.663-4.015,6.264-5.925,10.28-4.258
		c4.015,1.663,5.921,6.265,4.258,10.28l-9.635,23.262C159.236,510.17,156.305,512,153.218,512z"/>
	<path style="fill:#D1C6E7;" d="M336.299,457.724c-6.925,0-10.472-8.794-5.43-13.57c2.54-2.406,6.462-2.842,9.468-1.049
		c2.933,1.75,4.428,5.345,3.587,8.658C343.046,455.216,339.872,457.724,336.299,457.724z"/>
	<path style="fill:#D1C6E7;" d="M323.452,426.705c-3.088,0-6.018-1.829-7.272-4.859l-6.424-15.508
		c-1.663-4.015,0.243-8.617,4.258-10.28c4.015-1.662,8.617,0.242,10.28,4.258l6.424,15.508
		C332.824,420.909,328.977,426.705,323.452,426.705z"/>
	<path style="fill:#D1C6E7;" d="M358.782,512c-3.088,0-6.018-1.829-7.272-4.859l-9.635-23.262c-1.663-4.015,0.243-8.617,4.258-10.28
		c4.014-1.662,8.618,0.242,10.28,4.258l9.635,23.262C368.154,506.203,364.307,512,358.782,512z"/>
	<path style="fill:#D1C6E7;" d="M449.855,344.168c-3.286,0-6.304-2.132-7.41-5.221c-1.151-3.216-0.033-6.941,2.718-8.972
		c2.643-1.951,6.323-2.044,9.056-0.221c2.789,1.859,4.109,5.412,3.208,8.639C456.49,341.753,453.359,344.168,449.855,344.168z"/>
	<path style="fill:#D1C6E7;" d="M418.832,331.319c-1.004,0-2.024-0.193-3.008-0.601l-15.508-6.424
		c-4.015-1.663-5.921-6.265-4.258-10.28c1.663-4.015,6.267-5.924,10.28-4.258l15.508,6.424c3.311,1.371,5.317,4.931,4.765,8.474
		C426.022,328.441,422.667,331.319,418.832,331.319z"/>
	<path style="fill:#D1C6E7;" d="M504.126,366.649c-1.004,0-2.024-0.193-3.008-0.601l-23.262-9.636
		c-4.015-1.663-5.921-6.265-4.258-10.28s6.267-5.925,10.28-4.258l23.262,9.636c3.311,1.371,5.317,4.931,4.765,8.474
		C511.316,363.771,507.961,366.649,504.126,366.649z"/>
	<path style="fill:#D1C6E7;" d="M449.855,183.569c-3.451,0-6.553-2.323-7.544-5.619c-0.973-3.231,0.315-6.847,3.106-8.743
		c5.901-4.009,13.943,1.645,12.019,8.586C456.503,181.162,453.357,183.569,449.855,183.569z"/>
	<path style="fill:#D1C6E7;" d="M403.33,202.846c-3.939,0-7.353-3.035-7.818-6.946c-0.417-3.509,1.607-6.804,4.811-8.197
		c3.644-1.583,7.346-3.043,11.017-4.564c1.495-0.619,2.989-1.238,4.484-1.857c4.015-1.662,8.617,0.242,10.28,4.258
		c1.663,4.016-0.243,8.617-4.258,10.28l-15.508,6.424C405.353,202.652,404.333,202.846,403.33,202.846z"/>
	<path style="fill:#D1C6E7;" d="M480.87,170.727c-3.836,0-7.19-2.878-7.779-6.666c-0.552-3.543,1.454-7.103,4.765-8.474
		l23.262-9.636c4.014-1.662,8.618,0.242,10.28,4.258c1.663,4.015-0.243,8.617-4.258,10.28l-23.262,9.636
		C482.894,170.534,481.873,170.727,480.87,170.727z"/>
	<path style="fill:#D1C6E7;" d="M336.299,70.012c-3.159,0-6.057-1.945-7.27-4.857c-1.339-3.211-0.329-7.075,2.423-9.209
		c5.319-4.12,13.367,0.192,12.675,6.969C343.723,66.888,340.302,70.012,336.299,70.012z"/>
	<path style="fill:#D1C6E7;" d="M317.022,116.544c-5.526,0-9.373-5.796-7.266-10.881l6.424-15.508
		c1.663-4.014,6.267-5.923,10.28-4.258c4.015,1.663,5.921,6.265,4.258,10.28l-6.424,15.508
		C323.039,114.714,320.109,116.544,317.022,116.544z"/>
	<path style="fill:#D1C6E7;" d="M349.14,39.004c-5.526,0-9.373-5.796-7.266-10.881l9.635-23.262
		c1.663-4.014,6.264-5.923,10.28-4.258c4.015,1.663,5.921,6.265,4.258,10.28l-9.635,23.262
		C355.158,37.173,352.228,39.004,349.14,39.004z"/>
</g>
<g>
	<path style="fill:#FFFFFF;" d="M205.642,314.227c-6.881,0-10.41-8.585-5.563-13.433l100.715-100.715
		c3.073-3.072,8.055-3.072,11.127,0c3.073,3.074,3.073,8.055,0,11.128L211.206,311.922
		C209.67,313.458,207.657,314.227,205.642,314.227z"/>
	<path style="fill:#FFFFFF;" d="M297.964,314.227c-13.594,0-24.654-11.06-24.654-24.654s11.06-24.654,24.654-24.654
		s24.654,11.06,24.654,24.654S311.559,314.227,297.964,314.227z M297.964,280.655c-4.917,0-8.917,4-8.917,8.917
		c0,4.917,4,8.918,8.917,8.918c4.917,0,8.917-4,8.917-8.918C306.882,284.655,302.882,280.655,297.964,280.655z"/>
	<path style="fill:#FFFFFF;" d="M214.035,247.083c-13.594,0-24.654-11.06-24.654-24.654s11.06-24.654,24.654-24.654
		c13.594,0,24.654,11.06,24.654,24.654S227.63,247.083,214.035,247.083z M214.035,213.511c-4.917,0-8.917,4-8.917,8.917
		c0,4.917,4,8.917,8.917,8.917c4.917,0,8.917-4,8.917-8.917C222.953,217.512,218.952,213.511,214.035,213.511z"/>
</g>
<g>
</g>
<g>
</g>
<g>
</g>
<g>
</g>
<g>
</g>
<g>
</g>
<g>
</g>
<g>
</g>
<g>
</g>
<g>
</g>
<g>
</g>
<g>
</g>
<g>
</g>
<g>
</g>
<g>
</g>
</svg>
