<svg id="Capa_1" enable-background="new 0 0 512 512" height="512" viewBox="0 0 512 512" width="512" xmlns="http://www.w3.org/2000/svg" xmlns:xlink="http://www.w3.org/1999/xlink"><linearGradient id="SVGID_1_" gradientUnits="userSpaceOnUse" x1="223.035" x2="307.035" y1="-174.119" y2="921.881"><stop offset=".0023" stop-color="#ffc599"/><stop offset=".992" stop-color="#ffe8dc" stop-opacity="0"/></linearGradient><path d="m512 256c0-27.631-12.504-53.535-34.347-75.837-15.199-15.518-27.854-33.295-37.513-52.751-30.889-62.217-83.554-103.196-143.336-103.196-42.483 0-81.369 20.698-111.403 55.003-19.88 22.707-44.981 40.125-72.987 51.371-67.839 27.242-112.414 73.243-112.414 125.41s44.575 98.168 112.414 125.41c28.006 11.246 53.107 28.664 72.988 51.371 30.034 34.305 68.92 55.003 111.403 55.003 59.782 0 112.447-40.979 143.336-103.196 9.659-19.456 22.314-37.233 37.513-52.751 21.842-22.302 34.346-48.206 34.346-75.837z" fill="url(#SVGID_1_)"/><path d="m259.121 100.187c-102.675 0-185.91 83.235-185.91 185.91 0 18.332 2.666 36.039 7.61 52.768-17.615 14.478-28.852 36.432-28.852 61.013 0 43.598 35.343 78.942 78.942 78.942 21.196 0 40.426-8.37 54.607-21.965 22.573 9.743 47.455 15.152 73.604 15.152 102.675 0 185.91-83.235 185.91-185.91s-83.235-185.91-185.911-185.91z" fill="#00c" opacity=".1"/><circle cx="259.121" cy="265.097" fill="#6c6cff" r="185.91"/><ellipse cx="287.788" cy="376.386" fill="#4d4dff" rx="34.9" ry="13.703"/><path d="m366.262 137.961-3.803 22.891c-.176 1.061-.813 1.99-1.74 2.537l-21.038 12.408-30.157 17.403c-.552.319-1.011.777-1.33 1.328l-18.011 31.124c-.557.963-.643 2.127-.233 3.162l6.186 15.609c.03.076.063.151.098.225l5.076 10.652c.785 1.647.228 3.62-1.301 4.614l-15.673 10.188c-1.032.671-1.655 1.818-1.655 3.049v13.912c0 1.792-1.306 3.317-3.077 3.593l-9.804 1.528c-1.03.16-1.941.755-2.503 1.632l-10.52 16.428c-.389.608-.95 1.086-1.612 1.374l-16.295 7.09c-.377.164-.78.263-1.19.293l-29.656 2.133c-1.159.083-2.208.715-2.824 1.701l-15.062 24.108c-.301.482-.712.887-1.198 1.182l-7.871 4.775c-1.161.704-2.618.703-3.778-.003l-18.089-11.013c-.75-.456-1.309-1.169-1.575-2.005l-7.368-23.193c-.306-.963-.999-1.755-1.912-2.187l-17.066-8.066c-1.011-.478-1.746-1.394-1.993-2.484l-2.407-10.622c-.132-.584-.118-1.192.041-1.77l7.855-28.501c.159-.577.173-1.184.041-1.768l-3.306-14.635c-.213-.945-.041-1.936.479-2.753l6.189-9.73c.371-.583.568-1.261.568-1.952v-32.476c0-.964.383-1.889 1.064-2.571l11.546-11.553c1.419-1.42 1.419-3.723-.001-5.142l-3.614-3.614c-.682-.682-1.607-1.065-2.572-1.065h-29.032c-.306 0-.611-.039-.908-.115l-11.969-3.085c-2.378-.613-3.482-3.361-2.186-5.448 32.792-52.807 91.307-87.962 158.042-87.962 6.811 0 13.538.369 20.158 1.083 1.153.124 2.175.801 2.756 1.805l14.847 25.697c.42.727 1.079 1.287 1.865 1.583l65.212 24.608c1.626.612 2.59 2.287 2.306 3.998z" fill="#ff9d33"/><ellipse cx="191.742" cy="156.466" fill="#ff8b00" rx="34.9" ry="13.703"/><path d="m346.401 264.571-9.93 5.699c-1.807 1.037-2.375 3.378-1.244 5.129l8.125 12.57c.495.765 1.258 1.317 2.14 1.546l15.293 3.971c1.416.368 2.914-.149 3.803-1.31l18.539-24.235c.895-1.17.996-2.764.256-4.037l-2.101-3.615c-1.09-1.875-3.569-2.386-5.311-1.093l-.9.668c-2.756 2.045-6.551-.515-5.687-3.836.461-1.773-.468-3.612-2.169-4.292l-6.389-2.555c-1.581-.632-3.389-.083-4.351 1.322l-8.884 12.972c-.309.448-.716.824-1.19 1.096z" fill="#ff9d33"/><path d="m395.51 236.885 10.054-3.181c1.077-.341 2.252-.162 3.178.485l9.05 6.316c1.283.895 1.849 2.51 1.407 4.01l-2.023 6.869c-.817 2.775-4.39 3.531-6.262 1.325l-4.636-5.464c-.642-.757-1.566-1.219-2.557-1.278l-6.106-.363c-1.063-.063-2.046-.59-2.687-1.44l-1.224-1.622c-1.512-2.002-.587-4.899 1.806-5.657z" fill="#ff9d33"/><path d="m231.018 80.287c0 15.418-19.843 49.747-31.321 68.313-3.657 5.915-12.254 5.915-15.911 0-11.478-18.567-31.321-52.895-31.321-68.313 0-21.692 17.585-39.277 39.277-39.277s39.276 17.585 39.276 39.277z" fill="#ff2c2c"/><circle cx="191.048" cy="79.187" fill="#fff" r="14.257"/><path d="m327.065 300.207c0 15.418-19.843 49.747-31.321 68.313-3.657 5.915-12.254 5.915-15.911 0-11.478-18.567-31.321-52.895-31.321-68.313 0-21.692 17.585-39.277 39.277-39.277s39.276 17.585 39.276 39.277z" fill="#ff2c2c"/><circle cx="287.095" cy="299.107" fill="#fff" r="14.257"/><circle cx="130.91" cy="378.878" fill="#fff" r="78.942"/><g fill="#ff8b00"><path d="m117.317 395.181c-2.111 0-4.072-1.347-4.757-3.463l-14.03-43.4h-10.477c-2.761 0-5-2.239-5-5s2.239-5 5-5h14.115c2.169 0 4.09 1.398 4.758 3.462l15.149 46.862c.85 2.627-.592 5.446-3.219 6.296-.511.164-1.03.243-1.539.243z"/><path d="m161.764 395.179h-52.065c-2.761 0-5-2.239-5-5s2.239-5 5-5h47.879l4.218-23.628h-52.097c-2.761 0-5-2.239-5-5s2.239-5 5-5h58.068c1.48 0 2.884.655 3.833 1.79.95 1.135 1.349 2.632 1.089 4.089l-6.003 33.627c-.425 2.386-2.499 4.122-4.922 4.122z"/><path d="m120.25 425.439c-7.111 0-12.896-5.785-12.896-12.895 0-7.111 5.785-12.896 12.896-12.896 7.11 0 12.895 5.785 12.895 12.896.001 7.11-5.784 12.895-12.895 12.895zm0-15.791c-1.597 0-2.896 1.299-2.896 2.896 0 1.596 1.299 2.895 2.896 2.895 1.596 0 2.895-1.299 2.895-2.895.001-1.597-1.298-2.896-2.895-2.896z"/><path d="m157.043 425.439c-7.11 0-12.895-5.785-12.895-12.895 0-7.111 5.785-12.896 12.895-12.896 7.111 0 12.896 5.785 12.896 12.896 0 7.11-5.785 12.895-12.896 12.895zm0-15.791c-1.596 0-2.895 1.299-2.895 2.896 0 1.596 1.299 2.895 2.895 2.895 1.597 0 2.896-1.299 2.896-2.895 0-1.597-1.299-2.896-2.896-2.896z"/></g><path d="m450.031 265.097c0-2.761-2.239-5-5-5-.038 0-.074.01-.112.011-.382-.003-.769.025-1.158.114-22.553 5.135-45.819 9.26-69.68 12.391.058-2.498.095-5.002.095-7.516 0-50.541-11.695-98.132-32.932-134.005-2.405-4.063-4.906-7.911-7.487-11.565 7.836-2.217 15.033-4.801 21.424-7.725 7.339 4.597 14.375 9.728 21.033 15.386 32.259 27.418 53.979 65.357 61.158 106.829.47 2.72 3.06 4.542 5.78 4.074 2.721-.471 4.545-3.059 4.074-5.78-7.578-43.773-30.497-83.813-64.535-112.743-34.432-29.265-78.317-45.381-123.57-45.381-7.905 0-15.696.493-23.35 1.433-2.34-22.229-21.191-39.61-44.029-39.61-24.415 0-44.277 19.862-44.277 44.277 0 6.342 2.827 15.237 7.155 25.143-51.992 34.145-86.408 92.952-86.408 159.667 0 6.899.385 13.93 1.143 20.896.279 2.561 2.446 4.459 4.964 4.459.181 0 .364-.01.547-.03 2.746-.299 4.729-2.767 4.43-5.512-.493-4.527-.807-9.08-.963-13.602 21.492 4.701 43.592 8.524 66.221 11.451.249 4.532.595 9.029 1.032 13.489-4.769-.845-9.667-1.311-14.674-1.311-46.286 0-83.941 37.656-83.941 83.942s37.656 83.941 83.941 83.941c21.294 0 40.748-7.984 55.563-21.097 22.809 9.406 47.337 14.284 72.648 14.284 35.903 0 69.519-9.969 98.238-27.275.541-.212 1.044-.516 1.487-.907 54.657-33.62 91.183-93.986 91.183-162.728zm-10.119 6.224c-2.105 61.922-35.474 116.041-84.788 147.042-6.376-2.913-13.553-5.488-21.365-7.699 2.58-3.653 5.08-7.5 7.485-11.562 18.744-31.664 30.049-72.459 32.446-116.351 22.629-2.92 44.732-6.731 66.222-11.43zm-233.724 144.647c14.785-2.721 31.126-4.313 47.933-4.578v34.406c-17.738-1.446-34.741-10.57-49.705-26.435.617-1.116 1.205-2.248 1.772-3.393zm-52.121-150.871c0-42.72 8.616-83.117 24.414-115.577.352.573.704 1.146 1.052 1.71 2.635 4.262 7.199 6.807 12.208 6.807 5.009 0 9.573-2.544 12.208-6.807 4.787-7.744 9.873-16.329 14.552-24.928 11.333 1.463 23.298 2.32 35.619 2.502v142.695c-2.183 2.557-4.079 5.363-5.642 8.372-32.231-.362-63.73-2.366-94.283-5.997-.082-2.915-.128-5.84-.128-8.777zm110.054-180.704c18.685 1.522 36.555 11.562 52.085 29.027-15.849 3.211-33.687 5.092-52.085 5.382zm-29.413 4.765c6.325-2.615 12.818-4.203 19.413-4.743v34.39c-10.482-.166-20.775-.857-30.63-2.008 5.082-10.089 9.216-19.761 11.217-27.639zm53.081 176.772c18.9 0 34.277 15.377 34.277 34.277 0 10.313-11.144 34.254-30.574 65.684-1.153 1.865-2.973 2.066-3.703 2.066-.729 0-2.55-.201-3.702-2.066-19.43-31.43-30.574-55.371-30.574-65.684-.001-18.9 15.375-34.277 34.276-34.277zm-23.668 145.459c18.398.29 36.237 2.171 52.089 5.381-15.531 17.468-33.403 27.509-52.089 29.031zm0-10.003v-49.581c3.777 6.699 7.71 13.279 11.459 19.344 2.635 4.263 7.199 6.808 12.208 6.808 5.009 0 9.573-2.545 12.208-6.807 14.629-23.664 32.068-55.181 32.068-70.942 0-4.517-.684-8.877-1.947-12.986 11.275-.87 22.441-1.949 33.487-3.238-2.507 41.619-13.279 80.144-30.967 110.023-2.966 5.011-6.075 9.677-9.305 14.004-17.684-4.011-37.935-6.312-59.211-6.625zm68.518-265.2c20.337 34.354 31.537 80.136 31.537 128.911 0 2.935-.043 5.859-.123 8.771-12.597 1.495-25.355 2.713-38.257 3.657-7.741-12.922-21.878-21.594-38.007-21.594-8.701 0-16.816 2.533-23.667 6.885v-134.012c21.275-.313 41.526-2.613 59.211-6.625 3.23 4.328 6.339 8.995 9.306 14.007zm11.668-30.683c-5.236 2.003-10.974 3.807-17.113 5.394-6.712-8.18-13.898-15.071-21.453-20.59 13.389 3.571 26.332 8.671 38.566 15.196zm-152.565-59.493c18.9 0 34.277 15.376 34.277 34.277 0 10.312-11.144 34.252-30.574 65.684-1.152 1.864-2.973 2.065-3.703 2.065-.729 0-2.55-.201-3.702-2.065-19.431-31.431-30.575-55.372-30.575-65.684-.001-18.9 15.376-34.277 34.277-34.277zm-113.465 215.046c1.346-61.036 33.062-114.704 80.611-146.474 4.027 8.174 8.739 16.686 13.497 24.793-18.306 34.762-28.318 78.976-28.318 125.722 0 2.514.035 5.02.093 7.518-22.526-2.961-44.516-6.816-65.883-11.559zm76.372 22.943c29.252 3.42 59.347 5.368 90.103 5.831-.803 3.331-1.24 6.804-1.24 10.378 0 7.906 4.389 19.777 10.609 32.633v68.554c-15.201.224-29.865 1.469-43.458 3.623 2.705-8.232 4.188-17.013 4.188-26.138 0-37.581-24.825-69.472-58.938-80.138-.533-4.867-.96-9.782-1.264-14.743zm-97.68 94.879c0-40.771 33.17-73.942 73.941-73.942s73.942 33.17 73.942 73.942-33.17 73.941-73.942 73.941-73.941-33.169-73.941-73.941zm137.158 55.133c1.674-1.917 3.263-3.907 4.759-5.97 4.434 4.517 9.038 8.517 13.787 11.972-6.291-1.662-12.48-3.664-18.546-6.002zm133.071-14.72c6.127 1.583 11.857 3.381 17.084 5.378-12.108 6.488-25.035 11.635-38.583 15.248 7.572-5.526 14.774-12.429 21.499-20.626z" fill="#00c"/><path d="m33.5 295.416c-1.28 0-2.559-.488-3.536-1.464-1.953-1.953-1.953-5.119 0-7.071l10-10c1.953-1.952 5.118-1.952 7.071 0 1.953 1.953 1.953 5.119 0 7.071l-10 10c-.976.976-2.255 1.464-3.535 1.464z" fill="#ff9d33"/><path d="m468.5 276.455c-1.28 0-2.559-.488-3.536-1.464-1.953-1.953-1.953-5.119 0-7.071l10-10c1.953-1.952 5.118-1.952 7.071 0 1.953 1.953 1.953 5.119 0 7.071l-10 10c-.976.976-2.255 1.464-3.535 1.464z" fill="#ff6c6c"/><path d="m107.705 82.816c-1.28 0-2.559-.488-3.536-1.464-1.953-1.953-1.953-5.119 0-7.071l10-10c1.953-1.952 5.118-1.952 7.071 0 1.953 1.953 1.953 5.119 0 7.071l-10 10c-.976.976-2.256 1.464-3.535 1.464z" fill="#ff6c6c"/><path d="m320.668 48.18c-1.28 0-2.559-.488-3.536-1.464l-6.464-6.464-6.464 6.464c-1.953 1.952-5.118 1.952-7.071 0-1.953-1.953-1.953-5.119 0-7.071l10-10c1.953-1.952 5.118-1.952 7.071 0l10 10c1.953 1.953 1.953 5.119 0 7.071-.976.976-2.256 1.464-3.536 1.464z" fill="#6c6cff"/><path d="m403.664 454.666c-1.28 0-2.559-.488-3.536-1.464l-6.464-6.464-6.464 6.464c-1.953 1.952-5.118 1.952-7.071 0-1.953-1.953-1.953-5.119 0-7.071l10-10c1.953-1.952 5.118-1.952 7.071 0l10 10c1.953 1.953 1.953 5.119 0 7.071-.977.976-2.257 1.464-3.536 1.464z" fill="#6c6cff"/></svg>